<?xml version="1.0" standalone="no"?>
<!DOCTYPE svg PUBLIC "-//W3C//DTD SVG 20010904//EN"
 "http://www.w3.org/TR/2001/REC-SVG-20010904/DTD/svg10.dtd">
<svg version="1.0" xmlns="http://www.w3.org/2000/svg"
 width="628.000000pt" height="628.000000pt" viewBox="0 0 628.000000 628.000000"
 preserveAspectRatio="xMidYMid meet">
<metadata>
Created by potrace 1.14, written by Peter Selinger 2001-2017
</metadata>
<g transform="translate(0.000000,628.000000) scale(0.100000,-0.100000)"
fill="#000000" stroke="none">
<path d="M0 6190 l0 -89 83 -4 82 -3 -82 -2 -83 -2 0 -3045 0 -3045 3140 0
3140 0 0 3140 0 3140 -3140 0 -3140 0 0 -90z m443 -97 c-23 -2 -64 -2 -90 0
-26 2 -7 3 42 3 50 0 71 -1 48 -3z m320 0 c-23 -2 -64 -2 -90 0 -26 2 -7 3 42
3 50 0 71 -1 48 -3z m320 0 c-23 -2 -64 -2 -90 0 -26 2 -7 3 42 3 50 0 71 -1
48 -3z m320 0 c-23 -2 -64 -2 -90 0 -26 2 -7 3 42 3 50 0 71 -1 48 -3z m320 0
c-23 -2 -64 -2 -90 0 -26 2 -7 3 42 3 50 0 71 -1 48 -3z m320 0 c-23 -2 -64
-2 -90 0 -26 2 -7 3 42 3 50 0 71 -1 48 -3z m320 0 c-23 -2 -64 -2 -90 0 -26
2 -7 3 42 3 50 0 71 -1 48 -3z m320 0 c-23 -2 -64 -2 -90 0 -26 2 -7 3 42 3
50 0 71 -1 48 -3z m320 0 c-23 -2 -64 -2 -90 0 -26 2 -7 3 42 3 50 0 71 -1 48
-3z m320 0 c-23 -2 -64 -2 -90 0 -26 2 -7 3 42 3 50 0 71 -1 48 -3z m320 0
c-23 -2 -64 -2 -90 0 -26 2 -7 3 42 3 50 0 71 -1 48 -3z m320 0 c-23 -2 -64
-2 -90 0 -26 2 -7 3 42 3 50 0 71 -1 48 -3z m320 0 c-23 -2 -64 -2 -90 0 -26
2 -7 3 42 3 50 0 71 -1 48 -3z m320 0 c-23 -2 -64 -2 -90 0 -26 2 -7 3 42 3
50 0 71 -1 48 -3z m320 0 c-23 -2 -64 -2 -90 0 -26 2 -7 3 42 3 50 0 71 -1 48
-3z m320 0 c-23 -2 -64 -2 -90 0 -26 2 -7 3 42 3 50 0 71 -1 48 -3z m320 0
c-23 -2 -64 -2 -90 0 -26 2 -7 3 42 3 50 0 71 -1 48 -3z m320 0 c-23 -2 -64
-2 -90 0 -26 2 -7 3 42 3 50 0 71 -1 48 -3z m320 0 c-23 -2 -64 -2 -90 0 -26
2 -7 3 42 3 50 0 71 -1 48 -3z m-3010 -1100 c-7 -2 -19 -2 -25 0 -7 3 -2 5 12
5 14 0 19 -2 13 -5z m-490 -10 c-7 -2 -19 -2 -25 0 -7 3 -2 5 12 5 14 0 19 -2
13 -5z m22 -12 c-3 -6 -11 -11 -16 -11 -5 0 -4 6 3 14 14 16 24 13 13 -3z
m160 6 c42 2 339 2 415 0 25 0 48 -5 52 -11 5 -7 20 -7 48 1 33 8 43 8 47 -3
5 -15 134 -47 156 -38 8 3 18 0 22 -6 4 -6 16 -8 27 -4 13 4 18 2 14 -4 -9
-15 21 -22 52 -12 26 10 26 9 7 -6 -19 -15 -19 -15 9 -8 17 4 27 3 23 -2 -3
-6 9 -11 26 -12 24 -2 28 0 17 8 -18 12 -3 12 25 0 16 -7 17 -9 3 -9 -25 -1
-31 -18 -8 -24 12 -3 18 -1 14 5 -4 6 5 2 20 -7 15 -10 26 -13 26 -6 0 6 7 8
17 4 12 -5 13 -8 4 -11 -14 -5 156 -96 174 -93 73 9 80 7 80 -20 1 -19 -3 -25
-13 -21 -9 3 -10 7 -3 12 7 4 1 11 -16 18 -24 11 -26 10 -11 -1 10 -8 15 -17
12 -20 -3 -3 3 -10 14 -16 11 -6 22 -8 25 -4 4 3 14 -4 24 -16 20 -23 59 -35
68 -20 4 5 12 9 18 9 7 0 4 -5 -5 -11 -23 -13 -23 -26 1 -39 15 -8 24 -6 37 7
16 16 16 16 9 -6 -6 -18 -4 -22 6 -15 12 6 12 5 0 -9 -11 -15 -11 -17 1 -17 9
0 33 -18 54 -40 22 -22 43 -40 47 -40 5 0 20 -14 34 -31 18 -21 32 -29 46 -25
15 4 17 2 8 -7 -8 -8 -2 -20 26 -49 20 -21 42 -38 48 -38 5 0 3 5 -5 11 -13 9
-13 10 0 6 8 -2 15 -8 15 -13 0 -5 6 -18 14 -29 8 -14 11 -15 7 -3 -2 9 1 21
8 27 10 9 13 5 10 -16 -4 -35 27 -67 47 -50 7 7 5 2 -5 -10 -11 -13 -14 -23
-9 -23 6 0 16 7 23 15 13 16 30 11 30 -8 0 -8 -3 -7 -9 2 -7 11 -11 10 -20 -7
-8 -15 -8 -23 1 -28 7 -5 8 -3 3 6 -5 9 -4 11 4 6 6 -4 10 -13 9 -19 -4 -18
63 -107 92 -123 14 -7 19 -13 13 -14 -14 0 20 -66 73 -141 18 -26 30 -50 26
-54 -3 -3 2 -3 13 1 15 6 17 4 11 -11 -4 -11 2 -41 15 -74 13 -30 25 -49 27
-43 2 7 8 10 13 6 12 -7 11 2 -2 29 -10 21 -10 21 5 3 20 -25 20 -31 0 -50 -8
-9 -13 -20 -9 -25 8 -15 35 -2 29 14 -3 7 -1 16 4 19 20 12 20 -24 0 -38 -23
-17 -24 -15 22 -136 18 -47 37 -110 42 -140 6 -30 17 -60 24 -68 16 -16 19
-36 4 -27 -5 3 -10 -3 -10 -15 0 -12 4 -19 8 -16 5 3 9 -14 9 -37 1 -23 6 -89
11 -145 8 -80 15 -107 29 -119 10 -8 13 -12 6 -9 -8 4 -13 -23 -17 -91 -3 -54
-7 -114 -10 -133 -10 -88 -17 -138 -22 -170 -3 -19 -6 -47 -6 -62 -1 -16 -5
-28 -9 -28 -5 0 -9 -7 -9 -16 0 -9 5 -12 11 -8 7 4 10 1 7 -7 -3 -8 -10 -13
-16 -12 -12 3 -12 0 -14 -97 0 -36 -3 -55 -5 -43 -9 47 -29 21 -25 -30 1 -10
-1 -16 -6 -14 -4 3 -8 -11 -10 -31 -1 -20 -11 -44 -21 -53 -11 -10 -22 -33
-26 -51 -4 -18 -14 -43 -22 -55 -10 -15 -13 -33 -8 -50 6 -24 5 -25 -11 -12
-11 9 -15 9 -10 2 4 -7 3 -13 -3 -13 -6 0 -8 -7 -4 -16 5 -13 7 -13 15 -2 5 8
6 2 2 -16 -5 -19 -3 -27 4 -22 6 4 8 -2 5 -15 -5 -19 -7 -18 -21 10 -8 17 -18
31 -23 31 -12 0 -11 -17 1 -25 6 -3 10 -12 10 -18 0 -7 -4 -6 -10 3 -5 8 -11
12 -12 10 -30 -40 -37 -61 -27 -87 6 -20 6 -37 -1 -54 -9 -22 -10 -21 -4 8 7
42 -3 42 -21 1 -9 -20 -14 -26 -15 -15 0 10 7 29 16 43 9 13 15 27 12 29 -7 7
-83 -114 -83 -133 0 -10 -6 -16 -15 -14 -12 3 -13 1 -2 -10 11 -11 14 -10 22
2 6 8 8 20 6 26 -2 6 -1 17 4 23 5 8 8 2 8 -15 0 -37 -16 -56 -40 -48 -17 5
-19 2 -13 -15 4 -12 2 -21 -4 -21 -18 0 -12 -18 7 -23 12 -3 13 -5 2 -6 -8 0
-21 3 -29 8 -13 8 -13 12 0 27 8 11 9 15 2 10 -22 -12 -34 -44 -21 -52 7 -5 8
-3 3 7 -5 8 -4 10 0 6 5 -4 10 -14 11 -22 2 -11 -2 -12 -16 -5 -13 7 -22 4
-38 -13 -11 -12 -22 -26 -24 -32 -2 -5 -7 -9 -11 -7 -5 1 -6 -2 -2 -8 3 -5 1
-10 -4 -10 -6 0 -43 -33 -81 -72 -60 -61 -70 -77 -65 -98 l6 -25 -15 22 -16
21 -34 -31 c-45 -42 -87 -77 -92 -77 -2 0 -13 -8 -23 -17 -20 -17 -19 -33 2
-33 7 0 6 4 -3 10 -11 8 -8 9 12 4 17 -3 35 0 52 11 26 17 35 45 15 45 -5 0
-7 5 -3 12 6 9 9 9 11 1 3 -7 10 -10 18 -7 8 3 12 11 9 17 -2 7 4 17 14 23 14
9 21 7 36 -15 l20 -26 -22 18 c-20 18 -48 15 -37 -3 3 -5 0 -12 -7 -17 -7 -4
-18 -17 -24 -28 -13 -23 -97 -68 -102 -54 -6 14 -32 11 -38 -6 -4 -8 -10 -15
-16 -15 -5 0 -6 6 -2 13 4 6 -1 5 -12 -4 -10 -9 -37 -26 -59 -37 -22 -12 -36
-21 -32 -22 5 0 18 5 30 12 31 16 74 17 74 2 0 -9 -5 -10 -18 -4 -12 7 -26 5
-46 -5 -15 -8 -38 -15 -50 -15 -13 0 -23 -4 -23 -9 0 -5 -11 -12 -25 -15 -14
-4 -23 -11 -20 -16 3 -5 1 -11 -5 -15 -5 -3 -10 -2 -10 4 0 6 -7 8 -15 5 -8
-4 -15 -12 -15 -20 0 -8 -5 -14 -11 -14 -5 0 -7 5 -4 11 4 6 -11 1 -34 -10
-48 -25 -52 -34 -13 -26 26 5 26 5 3 -5 -13 -6 -32 -8 -43 -4 -12 3 -17 1 -16
-6 2 -7 -3 -15 -11 -18 -9 -3 -11 0 -6 8 6 9 1 10 -16 5 -58 -18 -89 -35 -89
-50 0 -9 -5 -13 -10 -10 -6 4 -8 10 -5 15 3 5 -28 -2 -69 -17 -41 -14 -73 -30
-70 -35 3 -4 -2 -8 -11 -8 -10 0 -13 5 -9 12 5 8 2 9 -10 5 -10 -4 -23 -7 -29
-8 -7 0 -3 -4 8 -9 11 -5 14 -9 7 -9 -7 -1 -22 4 -33 9 -15 9 -19 7 -19 -5 0
-13 -4 -14 -21 -5 -16 9 -25 8 -40 -6 -15 -13 -19 -14 -19 -3 0 10 -2 11 -8 2
-4 -7 -24 -10 -47 -9 -36 3 -37 2 -19 -11 19 -15 19 -15 -1 -10 -50 13 -95 17
-95 9 0 -10 -300 -7 -380 4 -25 3 -59 7 -77 8 -18 1 -35 5 -39 9 -4 4 -14 7
-21 7 -19 0 -6 -19 21 -30 15 -6 16 -9 5 -9 -9 -1 -28 8 -42 19 -16 12 -40 20
-65 20 -22 0 -42 5 -44 10 -4 13 -108 41 -108 29 0 -5 -7 -9 -16 -9 -8 0 -12
5 -8 11 4 8 0 9 -15 4 -15 -5 -21 -2 -21 9 0 20 -14 20 -30 1 -7 -8 -17 -15
-22 -15 -5 0 -2 7 7 17 14 13 14 18 3 23 -26 14 -61 22 -55 13 4 -6 -10 -9
-31 -7 -65 4 -69 5 -47 14 11 4 31 6 45 3 22 -4 23 -3 7 7 -10 7 -30 9 -44 5
-20 -5 -24 -3 -20 9 6 16 -17 23 -26 9 -2 -5 -2 -2 -1 4 2 7 -11 20 -27 29
-17 8 -28 11 -25 5 4 -7 1 -8 -8 -5 -9 3 -14 9 -11 13 2 4 -2 8 -9 8 -13 0
-185 103 -218 131 -15 13 -18 13 -19 1 0 -8 -4 -5 -9 6 -4 11 -23 29 -41 39
l-34 19 25 -27 c16 -18 19 -25 8 -21 -15 6 -25 22 -29 43 -3 19 -24 31 -48 27
-14 -2 -33 0 -41 5 -9 6 -10 10 -3 10 8 0 10 7 6 18 -6 15 -5 15 11 3 13 -11
14 -16 4 -22 -8 -5 -5 -8 10 -6 20 1 33 17 14 17 -4 0 -22 13 -40 29 -20 19
-34 26 -38 19 -4 -6 1 -17 11 -25 11 -7 14 -13 8 -13 -17 0 -36 29 -29 46 7
18 -31 54 -50 47 -6 -2 -17 3 -24 12 -11 13 -10 15 6 9 18 -5 18 -5 1 6 -9 6
-21 9 -26 5 -5 -3 -12 -1 -15 4 -4 5 -1 13 5 17 8 4 9 3 5 -4 -4 -7 -5 -12 -2
-12 21 0 6 26 -46 81 -34 35 -61 69 -60 74 1 6 -9 -3 -23 -20 -20 -24 -23 -26
-19 -8 3 11 1 24 -5 27 -6 4 -11 -1 -12 -11 0 -10 -3 -13 -6 -6 -6 17 23 58
32 44 3 -6 1 -11 -5 -11 -6 0 -8 -5 -4 -11 4 -8 9 -7 15 2 9 16 -17 49 -39 49
-9 0 -12 6 -8 17 4 10 4 14 0 10 -4 -4 -15 10 -24 32 -10 21 -31 57 -48 80
-25 34 -31 38 -36 24 -3 -11 -4 -8 -3 8 2 29 -32 111 -43 104 -4 -2 -12 13
-19 35 -14 49 -28 58 -41 28 -10 -23 -10 -23 -5 -1 3 13 8 33 12 45 4 15 3 19
-5 14 -7 -4 -13 -1 -13 6 -1 7 -3 20 -4 28 -1 8 -3 21 -4 28 0 7 -6 10 -12 6
-7 -4 -9 0 -5 14 4 12 2 23 -5 28 -8 4 -9 3 -5 -4 4 -7 2 -12 -4 -12 -7 0 -10
9 -7 23 3 12 1 31 -4 42 -8 16 -8 15 -4 -7 3 -18 1 -28 -6 -28 -8 0 -10 15 -7
45 4 30 2 42 -5 38 -6 -4 -8 0 -4 10 3 9 1 19 -4 23 -6 3 -9 14 -6 24 3 13 0
17 -9 13 -8 -3 -14 0 -14 6 0 6 5 11 11 11 7 0 8 7 4 18 -4 9 -8 22 -8 29 0 7
-4 10 -8 7 -4 -2 -7 10 -7 28 1 17 -3 33 -9 35 -6 2 -8 15 -5 28 3 20 1 24
-12 19 -18 -7 -20 0 -6 26 7 14 6 23 -5 34 -20 19 -19 30 1 22 13 -5 15 -2 10
16 -3 13 -6 29 -6 36 0 7 -5 10 -11 6 -8 -5 -8 -1 0 14 12 23 15 56 4 49 -9
-6 -7 316 2 388 5 34 4 46 -3 36 -7 -10 -10 -3 -9 27 2 41 10 44 21 7 3 -11 2
0 -1 24 -3 27 -2 41 5 37 6 -3 8 7 6 27 -1 17 -4 41 -5 52 -1 12 -5 6 -10 -15
-8 -35 -8 -35 -4 5 7 61 12 85 20 93 4 4 4 -4 0 -16 -6 -21 -5 -23 13 -13 14
7 23 28 30 68 5 32 8 64 5 73 -4 13 -4 13 6 0 9 -12 11 -11 12 10 1 14 1 35 0
47 -1 12 3 24 9 28 6 4 7 -1 4 -12 -5 -14 -4 -15 4 -4 6 8 8 20 5 28 -3 7 -1
13 5 13 5 0 12 7 16 15 6 16 -14 17 -25 1 -4 -5 -10 1 -14 13 -9 28 0 38 20
21 12 -10 15 -10 15 1 0 11 2 11 9 0 10 -15 11 -11 27 66 2 12 0 25 -6 28 -5
3 -10 11 -10 16 0 6 4 8 9 5 10 -7 22 18 17 37 -1 6 -1 8 2 3 2 -4 8 -3 12 4
5 8 7 3 7 -13 -1 -14 -5 -23 -9 -20 -5 2 -8 0 -8 -6 0 -12 20 -25 21 -14 1 4
3 18 4 30 1 12 10 29 19 39 9 9 26 36 37 60 16 33 18 47 10 63 -14 24 3 38 24
21 8 -7 16 -10 16 -6 1 3 2 10 3 15 0 5 4 13 8 17 4 4 6 16 4 28 -2 12 -1 15
1 8 3 -9 12 -5 29 13 25 27 31 45 15 45 -5 0 -12 -10 -14 -22 -4 -23 -4 -23
-6 0 -1 16 6 26 19 29 20 5 26 18 13 26 -5 2 -3 3 3 1 6 -1 15 1 20 4 5 4 6 3
2 -2 -5 -6 -8 -14 -8 -20 0 -5 13 9 29 30 15 21 38 47 49 58 12 10 19 23 16
28 -4 6 -15 -3 -26 -19 -11 -15 -17 -20 -14 -10 4 12 2 17 -6 14 -7 -2 -12
-12 -11 -21 0 -10 -2 -15 -5 -12 -3 3 -12 0 -21 -8 -14 -13 -16 -12 -18 11 -1
19 1 22 8 12 7 -11 12 -9 25 9 9 13 22 21 30 18 14 -5 16 -1 18 46 2 40 14 45
39 16 l22 -26 35 41 c19 22 29 37 23 33 -9 -5 -11 -2 -7 8 3 9 2 16 -4 16 -6
0 -12 -6 -15 -12 -2 -7 -7 -10 -11 -7 -4 4 7 17 25 30 l32 23 -6 -23 c-3 -15
-1 -21 6 -18 7 3 11 10 9 16 -1 7 2 10 7 7 5 -3 21 8 35 25 14 17 26 28 26 24
0 -3 17 10 38 30 20 20 37 42 37 48 0 6 6 12 14 15 9 3 11 0 6 -9 -5 -7 7 -2
26 11 19 13 36 28 37 32 2 4 9 8 15 8 7 0 23 10 37 23 14 12 20 18 13 14 -6
-5 -18 -5 -24 -1 -8 4 -9 3 -5 -5 10 -16 -19 -25 -41 -11 -16 10 -16 11 5 6
17 -3 22 -1 18 9 -3 9 2 12 16 10 11 -3 35 5 52 17 26 19 28 19 16 4 -14 -18
-14 -18 7 -6 12 8 20 17 17 21 -2 4 7 10 21 13 14 4 25 10 25 15 0 12 -48 23
-63 15 -9 -5 -9 -4 0 6 9 9 19 10 42 2 19 -7 33 -7 36 -1 4 5 14 9 23 9 13 0
13 -2 -4 -15 -10 -9 0 -6 24 6 32 16 41 26 37 38 -5 13 -4 14 6 4 18 -18 30
-16 22 4 -5 13 -2 15 11 10 16 -6 86 16 86 27 0 3 -16 -2 -36 -10 -20 -8 -38
-13 -41 -11 -8 8 71 31 96 28 16 -2 21 1 16 10 -5 8 -4 10 3 5 7 -4 18 -4 24
0 9 6 5 11 -12 16 -17 5 -13 6 13 2 29 -4 37 -2 31 7 -5 9 0 10 17 6 28 -7
141 27 119 36 -8 3 -1 4 15 3 17 -1 53 3 80 10 35 8 42 12 23 13 -15 1 -39 -4
-54 -9 -23 -9 -25 -9 -15 4 8 9 8 15 1 18 -5 1 19 3 54 3 36 0 62 -4 58 -9 -3
-6 2 -6 14 -1 10 5 32 8 47 8 21 0 25 2 15 9 -8 6 3 7 32 3 42 -6 44 -5 25 10
-19 16 -19 16 5 8 14 -4 43 -7 65 -6z m12 7 c-3 -3 -12 -4 -19 -1 -8 3 -5 6 6
6 11 1 17 -2 13 -5z m631 -22 c-11 -13 -10 -15 12 -9 14 3 43 8 65 11 37 5 36
5 -10 -9 -54 -16 -141 -10 -96 6 12 5 20 13 16 19 -3 6 1 7 10 4 13 -5 13 -9
3 -22z m-880 11 c-10 -2 -26 -2 -35 0 -10 3 -2 5 17 5 19 0 27 -2 18 -5z m739
1 c-3 -3 -12 -4 -19 -1 -8 3 -5 6 6 6 11 1 17 -2 13 -5z m210 -40 c-3 -3 -12
-4 -19 -1 -8 3 -5 6 6 6 11 1 17 -2 13 -5z m-1107 -24 c0 -5 -8 -10 -17 -10
-15 0 -16 2 -3 10 19 12 20 12 20 0z m1300 0 c0 -5 -4 -10 -10 -10 -5 0 -10 5
-10 10 0 6 5 10 10 10 6 0 10 -4 10 -10z m36 1 c-4 -5 -1 -12 4 -14 6 -3 5 -4
-2 -3 -15 3 -23 26 -8 26 6 0 9 -4 6 -9z m90 -18 c-7 -7 -26 7 -26 19 0 6 6 6
15 -2 9 -7 13 -15 11 -17z m-1513 10 c3 -5 -9 -9 -26 -10 -26 -1 -28 0 -12 7
26 11 33 12 38 3z m1482 -33 c8 -13 -5 -13 -25 0 -13 8 -13 10 2 10 9 0 20 -4
23 -10z m-1665 -44 c0 -2 -7 -7 -16 -10 -8 -3 -12 -2 -9 4 6 10 25 14 25 6z
m1747 -2 c-3 -3 -12 -4 -19 -1 -8 3 -5 6 6 6 11 1 17 -2 13 -5z m38 -34 c13
-6 15 -9 5 -9 -8 0 -22 4 -30 9 -18 12 -2 12 25 0z m55 -25 c7 -8 8 -15 2 -15
-5 0 -15 7 -22 15 -7 8 -8 15 -2 15 5 0 15 -7 22 -15z m-2015 -45 c3 -5 -1
-10 -9 -10 -9 0 -16 5 -16 10 0 6 4 10 9 10 6 0 13 -4 16 -10z m2182 -56 c-3
-3 -12 -4 -19 -1 -8 3 -5 6 6 6 11 1 17 -2 13 -5z m90 0 c-3 -3 -12 -4 -19 -1
-8 3 -5 6 6 6 11 1 17 -2 13 -5z m-17 -29 c-7 -8 -17 -15 -22 -15 -6 0 -5 7 2
15 7 8 17 15 22 15 6 0 5 -7 -2 -15z m-2417 -15 c8 0 8 -3 0 -11 -9 -9 -16 -7
-30 7 -17 17 -17 18 0 11 10 -4 24 -7 30 -7z m-98 -30 c-3 -5 -12 -10 -18 -10
-7 0 -6 4 3 10 19 12 23 12 15 0z m85 -4 c0 -2 -7 -6 -15 -10 -8 -3 -15 -1
-15 4 0 6 7 10 15 10 8 0 15 -2 15 -4z m-70 -16 c-12 -8 -12 -12 -2 -18 10 -7
10 -11 -3 -22 -12 -10 -18 -11 -28 -1 -9 10 -8 11 6 6 10 -4 17 -2 17 4 0 6
-5 11 -11 11 -8 0 -8 5 1 15 7 8 18 15 24 15 6 0 4 -5 -4 -10z m2571 -7 c13
-15 12 -15 -8 -4 -24 12 -29 21 -14 21 5 0 15 -7 22 -17z m-2619 -61 c-7 -2
-10 -7 -7 -12 6 -10 -21 -7 -31 3 -13 12 -20 8 -20 -13 0 -13 5 -19 13 -16 19
8 16 -2 -5 -13 -16 -9 -18 -6 -17 22 1 22 7 32 18 32 8 0 19 3 22 7 4 4 14 4
23 0 10 -4 12 -7 4 -10z m2712 6 c-3 -5 -1 -8 3 -8 5 0 9 -10 10 -22 2 -22 1
-22 -23 5 -13 16 -28 26 -33 22 -5 -3 -12 -2 -15 3 -3 5 10 8 29 8 18 0 31 -4
29 -8z m71 -98 c3 -5 1 -10 -4 -10 -6 0 -11 5 -11 10 0 6 2 10 4 10 3 0 8 -4
11 -10z m16 -23 c-10 -9 -11 -8 -5 6 3 10 9 15 12 12 3 -3 0 -11 -7 -18z
m-2961 -42 c0 -8 -2 -15 -4 -15 -2 0 -6 7 -10 15 -3 8 -1 15 4 15 6 0 10 -7
10 -15z m3176 -157 c4 -6 9 -6 14 2 5 8 9 7 13 -5 4 -9 3 -13 -3 -10 -6 3 -10
1 -10 -6 0 -7 -8 -5 -20 6 -11 10 -20 14 -20 9 0 -12 59 -74 71 -74 5 0 9 -5
9 -11 0 -8 -4 -9 -13 0 -8 6 -16 8 -20 5 -3 -3 -11 5 -18 18 -6 12 -15 25 -18
28 -3 3 -14 15 -24 26 -17 21 -17 22 8 22 14 0 28 -5 31 -10z m-3389 -60 c-3
-7 -5 -2 -5 12 0 14 2 19 5 13 2 -7 2 -19 0 -25z m3477 -43 c-4 -8 -2 -15 4
-15 6 0 12 6 15 13 2 6 3 -3 2 -22 -3 -37 -31 -63 -41 -37 -3 8 -4 21 -1 28 3
7 6 2 6 -11 1 -19 4 -22 12 -14 9 9 8 18 -4 36 -15 23 -13 37 4 37 5 0 6 -7 3
-15z m-3546 -119 c-8 -6 -13 -16 -11 -23 2 -6 0 -13 -4 -16 -4 -3 -8 11 -9 31
-1 21 1 31 3 25 3 -7 9 -13 15 -13 6 0 7 7 4 15 -16 39 -16 47 0 21 14 -26 15
-31 2 -40z m3567 19 c0 -23 -1 -24 -12 -8 -10 13 -10 18 0 25 6 4 12 8 12 8 0
0 0 -11 0 -25z m56 -70 c5 4 9 -1 9 -9 0 -13 -3 -14 -19 -4 -12 7 -17 18 -13
27 6 14 7 14 10 -2 2 -9 8 -15 13 -12z m29 -93 c0 -15 -2 -15 -10 -2 -13 20
-13 33 0 25 6 -3 10 -14 10 -23z m68 -47 c-3 -3 -9 2 -12 12 -6 14 -5 15 5 6
7 -7 10 -15 7 -18z m8 -123 c1 -20 0 -28 -3 -17 -3 11 -10 23 -17 28 -8 5 -7
10 4 17 8 5 15 10 15 10 0 0 1 -17 1 -38z m-3895 -6 c-5 -6 -11 -20 -14 -31
-3 -11 -4 -4 -3 16 1 25 5 35 14 32 8 -4 9 -9 3 -17z m3932 -106 c3 -11 1 -18
-4 -14 -5 3 -9 12 -9 20 0 20 7 17 13 -6z m16 -54 c-9 -8 -10 -7 -5 7 3 10 7
26 7 35 1 9 4 6 6 -7 3 -13 -1 -28 -8 -35z m-4001 -31 c-3 -3 -9 2 -12 12 -6
14 -5 15 5 6 7 -7 10 -15 7 -18z m4016 -9 c-3 -15 -8 -25 -11 -23 -2 3 -1 17
3 31 3 15 8 25 11 23 2 -3 1 -17 -3 -31z m9 -51 c-3 -9 -8 -14 -10 -11 -3 3
-2 9 2 15 9 16 15 13 8 -4z m-4066 -117 c-3 -8 -6 -5 -6 6 -1 11 2 17 5 13 3
-3 4 -12 1 -19z m4100 -140 c-3 -8 -6 -5 -6 6 -1 11 2 17 5 13 3 -3 4 -12 1
-19z m29 -15 c-10 -10 -19 5 -10 18 6 11 8 11 12 0 2 -7 1 -15 -2 -18z m-14
-48 c3 -14 1 -25 -3 -25 -5 0 -9 11 -9 25 0 14 2 25 4 25 2 0 6 -11 8 -25z
m35 -87 c-3 -8 -6 -5 -6 6 -1 11 2 17 5 13 3 -3 4 -12 1 -19z m-20 -115 c-2
-21 -4 -6 -4 32 0 39 2 55 4 38 2 -18 2 -50 0 -70z m20 -55 c-3 -8 -6 -5 -6 6
-1 11 2 17 5 13 3 -3 4 -12 1 -19z m-4 -85 c4 -19 2 -33 -3 -33 -6 0 -10 10
-10 23 0 12 -3 33 -6 47 -4 18 -3 21 4 10 5 -8 12 -30 15 -47z m-33 -2 c0 -32
-6 -24 -14 19 -4 25 -3 31 4 20 5 -8 10 -26 10 -39z m-4113 -73 c-3 -8 -6 -5
-6 6 -1 11 2 17 5 13 3 -3 4 -12 1 -19z m29 -219 c-4 -48 -16 -82 -16 -43 0
27 12 94 16 94 2 0 2 -23 0 -51z m4041 -31 c-2 -13 -4 -5 -4 17 -1 22 1 32 4
23 2 -10 2 -28 0 -40z m-17 2 c0 -5 -4 -10 -10 -10 -5 0 -10 5 -10 10 0 6 5
10 10 10 6 0 10 -4 10 -10z m20 -57 c0 -10 -5 -25 -10 -33 -8 -11 -9 -7 -4 14
5 22 4 27 -6 21 -9 -5 -11 -4 -6 3 11 18 26 14 26 -5z m-3960 -186 c0 -16 -18
3 -23 25 -6 22 -5 22 8 4 8 -11 15 -24 15 -29z m3864 7 c4 -10 2 -13 -6 -8 -8
5 -9 1 -4 -12 5 -14 4 -16 -4 -8 -6 6 -8 18 -4 27 8 21 10 21 18 1z m-3884
-29 c0 -5 -5 -3 -10 5 -5 8 -10 20 -10 25 0 6 5 3 10 -5 5 -8 10 -19 10 -25z
m3856 -72 c-10 -10 -19 5 -10 18 6 11 8 11 12 0 2 -7 1 -15 -2 -18z m31 -25
c-3 -7 -5 -2 -5 12 0 14 2 19 5 13 2 -7 2 -19 0 -25z m-3777 -39 c0 -6 -4 -7
-10 -4 -5 3 -10 11 -10 16 0 6 5 7 10 4 6 -3 10 -11 10 -16z m3 -33 c4 -10 1
-13 -8 -9 -8 3 -12 9 -9 14 7 12 11 11 17 -5z m34 -53 c-3 -10 -5 -4 -5 12 0
17 2 24 5 18 2 -7 2 -21 0 -30z m3623 3 c0 -2 -7 -9 -15 -16 -13 -11 -14 -10
-9 4 5 14 24 23 24 12z m-3600 -21 c0 -8 -4 -15 -10 -15 -5 0 -7 7 -4 15 4 8
8 15 10 15 2 0 4 -7 4 -15z m40 -75 c0 -5 -2 -10 -4 -10 -3 0 -8 5 -11 10 -3
6 -1 10 4 10 6 0 11 -4 11 -10z m38 -45 c14 -31 15 -46 2 -25 -5 8 -12 12 -15
8 -4 -3 3 -16 14 -27 15 -15 17 -21 7 -21 -15 0 -29 29 -30 68 -2 29 8 28 22
-3z m3332 -199 c0 -4 -7 -3 -15 4 -8 7 -24 9 -37 5 -22 -7 -22 -7 -3 8 15 11
23 12 37 3 10 -6 18 -15 18 -20z m-3196 0 c-6 -16 -24 -13 -24 5 0 6 5 7 10 4
6 -3 10 -1 10 6 0 7 2 10 5 7 3 -3 3 -13 -1 -22z m71 -59 c14 -8 14 -11 -6
-28 -12 -10 -27 -19 -32 -19 -6 0 0 9 13 20 20 17 20 20 6 26 -9 3 -16 12 -16
19 0 7 -7 16 -16 19 -8 3 -12 11 -8 17 4 7 13 0 25 -17 9 -15 25 -32 34 -37z
m3123 12 c-3 -8 -7 -3 -11 10 -4 17 -3 21 5 13 5 -5 8 -16 6 -23z m-78 -14
c-6 -8 -9 -24 -5 -37 5 -20 4 -21 -5 -5 -6 9 -8 27 -4 40 6 19 5 20 -10 8 -10
-8 -14 -21 -11 -32 7 -23 -10 -26 -19 -4 -6 18 30 59 44 50 6 -4 10 0 11 7 0
10 2 10 6 0 3 -7 0 -19 -7 -27z m-3109 2 c-10 -9 -11 -8 -5 6 3 10 9 15 12 12
3 -3 0 -11 -7 -18z m4 -27 c3 -5 1 -10 -4 -10 -6 0 -11 5 -11 10 0 6 2 10 4
10 3 0 8 -4 11 -10z m3040 -9 c3 -5 0 -13 -6 -17 -8 -4 -9 -3 -5 4 4 7 2 12
-3 12 -6 0 -11 -6 -11 -12 -1 -19 -39 -62 -48 -54 -4 4 1 12 11 18 10 5 22 21
27 34 10 25 24 31 35 15z m-2931 -60 c-2 -3 -12 3 -22 13 -16 17 -16 18 5 5
12 -7 20 -15 17 -18z m54 -30 c-7 -9 -14 -18 -16 -21 -3 -3 -1 5 3 18 4 14 1
30 -7 40 -9 13 -7 12 10 -2 18 -16 20 -22 10 -35z m2855 14 c4 -8 1 -17 -5
-21 -7 -5 -8 -2 -3 6 6 10 4 12 -10 6 -15 -5 -16 -4 -5 9 15 19 16 19 23 0z
m-55 -20 c-3 -3 -9 2 -12 12 -6 14 -5 15 5 6 7 -7 10 -15 7 -18z m-2769 -64
c-6 -2 -18 4 -27 13 -15 15 -15 15 10 4 15 -7 23 -15 17 -17z m2641 -19 c0 -4
-15 -16 -32 -26 l-33 -18 30 26 c34 28 35 29 35 18z m25 -62 c-3 -5 -12 -10
-18 -10 -7 0 -6 4 3 10 19 12 23 12 15 0z m-2537 -14 c-7 -8 -15 -12 -17 -11
-5 6 10 25 20 25 5 0 4 -6 -3 -14z m112 -42 c0 -3 -7 -1 -15 6 -8 7 -15 17
-15 22 0 5 7 3 15 -6 8 -8 15 -18 15 -22z m40 -20 c0 -22 -16 -17 -17 6 -1 11
2 18 8 15 5 -4 9 -13 9 -21z m-89 -7 c-10 -9 -11 -8 -5 6 3 10 9 15 12 12 3
-3 0 -11 -7 -18z m2282 -4 c-7 -2 -13 -12 -13 -20 0 -9 -3 -14 -6 -10 -10 10
4 37 18 36 10 0 10 -2 1 -6z m-106 -39 c-3 -3 -12 -4 -19 -1 -8 3 -5 6 6 6 11
1 17 -2 13 -5z m-1942 -32 c-3 -3 -11 0 -18 7 -9 10 -8 11 6 5 10 -3 15 -9 12
-12z m-35 -2 c0 -5 -4 -10 -10 -10 -5 0 -10 5 -10 10 0 6 5 10 10 10 6 0 10
-4 10 -10z m1970 0 c0 -5 -7 -10 -16 -10 -8 0 -12 5 -9 10 3 6 10 10 16 10 5
0 9 -4 9 -10z m-1940 -14 c0 -3 -4 -8 -10 -11 -5 -3 -10 -1 -10 4 0 6 5 11 10
11 6 0 10 -2 10 -4z m1773 -58 c3 -9 -7 -14 -27 -15 l-31 -2 25 13 c14 8 26
14 26 15 1 1 4 -5 7 -11z m40 5 c-7 -2 -19 -2 -25 0 -7 3 -2 5 12 5 14 0 19
-2 13 -5z m37 -7 c0 -2 -7 -7 -16 -10 -8 -3 -12 -2 -9 4 6 10 25 14 25 6z
m-163 -31 c1 -15 0 -15 -3 -3 -3 9 -13 19 -22 22 -12 3 -12 4 3 3 12 -1 21
-10 22 -22z m-87 -15 c0 -5 -7 -10 -16 -10 -8 0 -12 5 -9 10 3 6 10 10 16 10
5 0 9 -4 9 -10z m-1283 -26 c-3 -3 -12 -4 -19 -1 -8 3 -5 6 6 6 11 1 17 -2 13
-5z m80 0 c-3 -3 -12 -4 -19 -1 -8 3 -5 6 6 6 11 1 17 -2 13 -5z m-40 -10 c-3
-3 -12 -4 -19 -1 -8 3 -5 6 6 6 11 1 17 -2 13 -5z m90 -2 c8 -5 -1 -8 -22 -8
-21 0 -30 3 -22 8 6 4 17 8 22 8 6 0 16 -4 22 -8z m1066 1 c-7 -2 -19 -2 -25
0 -7 3 -2 5 12 5 14 0 19 -2 13 -5z m-776 -55 c-16 -10 -44 -10 -51 0 -2 4 11
8 30 8 20 0 29 -3 21 -8z m463 -4 c0 -2 -16 -4 -35 -4 -19 0 -35 4 -35 8 0 4
16 6 35 4 19 -2 35 -6 35 -8z m-357 -1 c-7 -2 -19 -2 -25 0 -7 3 -2 5 12 5 14
0 19 -2 13 -5z m147 -3 c0 -6 -23 -9 -52 -8 l-53 1 50 7 c28 4 51 8 53 8 1 1
2 -2 2 -8z m-203 -6 c-3 -3 -12 -4 -19 -1 -8 3 -5 6 6 6 11 1 17 -2 13 -5z
m296 -1 c-7 -2 -19 -2 -25 0 -7 3 -2 5 12 5 14 0 19 -2 13 -5z m-334 -7 c-2
-2 -26 -6 -54 -10 -34 -4 -43 -3 -30 3 19 9 93 15 84 7z m82 -14 c-7 -2 -18 1
-23 6 -8 8 -4 9 13 5 13 -4 18 -8 10 -11z m92 1 c-7 -2 -19 -2 -25 0 -7 3 -2
5 12 5 14 0 19 -2 13 -5z m154 1 c-3 -3 -12 -4 -19 -1 -8 3 -5 6 6 6 11 1 17
-2 13 -5z m-347 -14 c0 -5 -2 -10 -4 -10 -3 0 -8 5 -11 10 -3 6 -1 10 4 10 6
0 11 -4 11 -10z"/>
<path d="M2980 4931 c-20 -7 -21 -9 -6 -10 11 -1 17 -3 14 -6 -3 -3 -25 0 -50
6 -37 10 -50 10 -76 -3 -17 -9 -32 -12 -34 -7 -2 4 -25 4 -53 0 -27 -5 -41 -9
-30 -11 l20 -1 -20 -8 c-12 -5 -25 -4 -33 2 -9 7 -21 6 -38 -2 -14 -6 -31 -8
-37 -4 -7 4 -5 -2 3 -12 14 -17 14 -18 -8 -6 -13 7 -31 9 -40 5 -26 -11 43
-24 87 -16 l36 6 -30 7 c-27 6 -28 7 -5 8 14 0 32 -4 40 -9 11 -7 11 -10 2
-10 -7 0 -11 -4 -8 -8 7 -12 -119 -6 -144 8 -18 10 -21 9 -15 -1 6 -9 3 -11
-8 -6 -9 3 -17 2 -19 -3 -2 -5 -19 -12 -38 -14 -42 -6 -151 -45 -130 -46 10
-1 9 -4 -5 -10 -27 -12 -43 -12 -25 0 8 5 11 10 5 10 -5 0 -16 -4 -24 -9 -11
-7 -9 -10 9 -16 15 -5 19 -10 12 -17 -8 -8 -16 -6 -27 6 -20 20 -26 20 -19 3
5 -15 -23 -44 -33 -33 -3 3 -1 6 5 6 7 0 12 4 12 10 0 5 -8 8 -17 7 -30 -6
-112 -50 -107 -58 2 -4 -4 -7 -13 -7 -20 2 -166 -83 -158 -91 3 -2 11 1 17 7
7 7 19 12 28 11 9 0 6 -4 -7 -9 -13 -5 -23 -13 -23 -18 0 -17 -77 -61 -87 -51
-7 7 -10 4 -9 -8 0 -10 -3 -18 -9 -18 -5 0 -9 4 -7 10 1 5 -10 -3 -24 -20 -14
-16 -23 -23 -18 -15 8 15 -65 -36 -78 -54 -3 -5 -5 -18 -2 -29 2 -11 1 -17 -3
-13 -4 3 -15 -1 -25 -11 -10 -9 -18 -11 -18 -5 0 6 9 16 21 22 11 7 18 15 14
18 -9 9 -76 -68 -69 -79 3 -5 0 -17 -6 -26 -9 -15 -10 -14 -4 6 4 17 2 22 -7
19 -20 -7 -21 -24 -3 -42 9 -9 14 -20 11 -23 -3 -3 -13 1 -21 10 -8 8 -12 17
-9 21 4 3 1 6 -6 6 -8 0 -10 -7 -6 -20 4 -11 2 -20 -4 -20 -6 0 -11 5 -11 10
0 17 -76 -76 -96 -117 -3 -7 -21 -30 -40 -50 -19 -21 -32 -43 -30 -50 3 -7 1
-15 -3 -18 -5 -3 -7 -14 -4 -24 3 -10 -3 -32 -12 -47 -9 -16 -14 -21 -10 -10
3 10 0 25 -6 32 -7 9 -8 14 -1 14 6 0 13 -6 15 -12 3 -7 5 4 5 24 l-1 37 -27
-42 c-35 -57 -49 -95 -49 -137 -1 -52 -4 -70 -10 -65 -4 2 -6 22 -6 44 0 26
-3 37 -9 31 -6 -6 -10 -26 -10 -45 0 -26 -3 -32 -13 -24 -9 8 -14 4 -20 -18
-4 -15 -6 -34 -4 -42 1 -7 -2 -10 -7 -7 -6 3 -13 -1 -16 -10 -4 -10 -2 -13 7
-8 6 4 4 -2 -6 -13 -10 -11 -18 -38 -18 -64 -1 -27 -3 -35 -6 -19 -5 24 -5 24
-19 -8 -7 -18 -11 -39 -8 -47 4 -8 1 -15 -4 -15 -18 0 -25 -40 -10 -57 11 -14
11 -16 -4 -10 -20 7 -35 -27 -20 -46 15 -19 20 -54 11 -68 -6 -10 -9 -7 -9 11
-1 57 -17 50 -29 -12 -7 -35 -18 -85 -24 -113 -6 -27 -11 -85 -10 -129 0 -43
-2 -73 -6 -68 -4 6 -5 -70 -4 -169 1 -99 5 -184 9 -190 3 -6 8 -37 10 -70 4
-69 24 -145 34 -129 5 8 9 7 13 -3 3 -7 1 -20 -4 -28 -7 -12 -9 -12 -9 0 0 8
-2 12 -5 9 -3 -3 2 -28 12 -57 11 -37 19 -48 26 -39 6 9 7 6 4 -9 -3 -14 0
-23 6 -23 7 0 6 -4 -2 -9 -11 -7 -12 -13 -4 -23 6 -7 14 -31 18 -53 l7 -39 17
23 c14 18 20 21 26 11 5 -8 4 -11 -2 -7 -12 7 -32 -32 -26 -51 3 -6 9 -9 15
-6 7 5 9 -2 4 -21 -6 -25 -5 -27 8 -15 14 11 16 10 15 -6 -3 -34 1 -55 9 -50
5 3 9 -7 9 -22 0 -41 64 -143 85 -136 10 3 21 -3 27 -15 13 -23 14 -42 2 -23
-7 11 -9 11 -13 0 -3 -7 1 -19 8 -26 8 -7 14 -9 14 -4 0 5 6 9 14 9 8 0 11 -8
8 -19 -2 -10 -9 -15 -14 -11 -6 3 -9 0 -6 -8 3 -8 10 -15 16 -15 7 -1 18 -2
25 -3 8 -1 8 -4 -2 -10 -12 -8 -12 -12 -2 -25 18 -22 34 -20 26 3 -5 18 -3 18
19 8 23 -11 24 -12 5 -19 -10 -4 -19 -12 -19 -18 0 -6 -5 -8 -11 -4 -6 3 -3
-5 6 -20 10 -14 21 -26 25 -26 4 0 12 -10 19 -23 6 -12 10 -15 7 -6 -4 17 19
19 42 5 11 -6 10 -12 -4 -27 -15 -17 -16 -19 -2 -14 20 8 31 32 22 48 -4 8 -2
7 7 -1 11 -10 10 -17 -4 -41 -13 -22 -14 -32 -6 -37 8 -5 9 -3 4 6 -5 9 -4 11
4 6 6 -4 10 -15 9 -24 -2 -9 2 -16 8 -15 7 1 15 -10 19 -24 3 -15 9 -23 13
-17 4 5 16 16 26 24 19 15 19 14 3 -11 -16 -25 -16 -27 5 -45 l23 -19 -19 23
c-11 12 -14 22 -8 22 6 0 14 -5 17 -10 4 -6 11 -8 16 -5 5 4 15 3 22 -2 6 -4
15 -8 20 -8 4 0 7 -4 6 -10 -1 -5 -5 -9 -9 -8 -5 2 -7 -10 -5 -25 2 -15 4 -31
5 -37 0 -5 5 -2 11 8 8 13 14 15 30 7 12 -7 25 -7 37 -1 26 14 27 -21 1 -37
-24 -15 -25 -4 -2 13 15 11 13 12 -17 10 -19 -2 -36 -3 -38 -4 -4 -1 10 -15
72 -69 56 -49 79 -54 72 -17 -3 14 -1 25 3 25 12 0 11 -49 -1 -56 -5 -4 -1
-11 10 -18 10 -6 38 -23 60 -38 23 -16 45 -28 49 -28 5 0 0 5 -9 11 -10 5 -18
14 -18 20 0 5 11 2 26 -7 14 -9 23 -23 20 -30 -3 -8 5 -18 17 -24 21 -11 21
-11 3 4 -11 9 -15 16 -9 16 7 0 20 -11 30 -24 17 -21 22 -22 43 -11 26 14 40
11 40 -8 0 -8 -3 -8 -9 2 -5 8 -11 9 -15 3 -3 -6 11 -24 31 -41 41 -33 49 -36
58 -21 4 6 -1 7 -12 4 -15 -5 -15 -4 -3 4 15 11 34 6 25 -8 -8 -13 21 -31 40
-23 12 4 16 3 12 -4 -4 -7 12 -18 40 -29 27 -10 53 -21 59 -26 6 -5 20 -5 29
-1 13 4 16 3 11 -6 -6 -8 -1 -10 17 -6 14 4 28 2 31 -4 4 -6 16 -11 27 -11 10
0 19 -5 19 -11 0 -5 5 -7 11 -3 6 3 14 2 18 -3 9 -15 132 -42 166 -37 25 3 26
3 10 -5 -17 -8 -13 -10 20 -11 66 -3 110 1 116 12 4 5 9 3 12 -6 3 -8 1 -17
-6 -19 -7 -2 29 -2 79 1 62 3 93 1 98 -7 8 -13 146 -15 146 -2 0 5 16 12 36
15 19 4 43 9 52 12 9 2 4 -2 -13 -11 l-30 -15 45 4 c58 6 110 16 133 28 12 6
17 5 17 -4 0 -9 3 -9 12 0 7 7 25 12 40 12 15 0 28 4 28 10 0 5 7 7 15 3 9 -3
24 2 35 12 16 14 23 15 34 6 12 -10 20 -10 37 0 13 6 34 15 48 20 l26 7 -25 1
c-14 0 -34 -6 -44 -14 -22 -17 -40 -20 -32 -6 4 5 3 11 -1 14 -5 2 -3 2 4 1
14 -3 68 13 106 33 27 14 52 10 42 -7 -3 -5 8 -4 25 1 16 6 30 18 30 26 0 11
7 14 26 10 26 -5 79 15 68 26 -3 3 3 3 15 0 22 -6 29 11 9 21 -7 3 -3 3 10 0
12 -3 22 -1 22 4 0 5 10 8 23 8 14 -1 22 5 21 15 -1 11 7 16 25 16 14 0 46 13
71 29 25 15 47 29 50 29 5 0 112 74 143 98 9 8 17 17 17 21 0 10 -53 -26 -72
-49 -16 -19 -16 -19 -11 8 3 15 8 26 11 23 2 -3 17 3 32 14 17 12 35 17 46 13
13 -5 16 -3 11 10 -6 17 19 44 30 33 4 -4 1 -11 -7 -16 -8 -6 -11 -10 -7 -10
13 0 67 43 67 53 0 6 -8 3 -18 -6 -10 -10 -23 -17 -28 -17 -5 0 5 11 21 25 26
21 28 26 15 36 -13 9 -13 10 0 6 8 -2 14 -12 14 -21 -1 -9 2 -16 7 -16 5 0 9
11 9 24 0 14 5 28 11 32 8 4 9 -1 4 -17 -8 -24 -8 -24 14 -5 14 13 18 22 10
26 -10 7 17 25 33 22 10 -2 -2 30 -20 51 -10 11 -11 17 -3 17 6 0 14 -7 17
-15 5 -12 10 -13 20 -4 7 6 17 8 22 5 5 -3 28 15 51 40 41 45 54 67 26 44 -9
-7 -15 -8 -15 -2 0 5 7 13 16 16 9 4 14 13 10 21 -3 8 -1 15 4 15 6 0 10 7 10
16 0 8 5 12 10 9 7 -4 7 -12 0 -25 -19 -36 -10 -31 30 15 52 60 61 78 49 96
-8 12 -10 12 -8 -1 3 -19 -21 -70 -33 -70 -4 0 -8 6 -8 13 0 8 -3 7 -10 -3 -5
-8 -12 -11 -17 -7 -9 10 18 28 30 20 14 -8 34 27 32 58 -1 15 2 26 7 23 4 -3
8 0 8 6 0 7 7 9 16 6 26 -10 74 50 70 87 -2 16 -9 33 -15 37 -9 5 -8 10 4 20
13 11 14 10 9 -4 -4 -11 -2 -16 7 -14 9 2 13 -4 11 -17 -2 -16 -1 -17 7 -6 6
10 6 21 0 33 -6 11 -6 18 0 18 5 0 11 -5 13 -10 2 -6 15 13 30 41 25 49 26 54
12 82 -16 30 -14 39 11 43 12 2 13 -2 4 -18 -8 -15 -8 -23 1 -32 8 -8 9 -6 4
8 -6 15 -4 17 6 11 9 -5 11 -4 6 3 -4 7 -3 12 3 12 6 0 8 7 4 16 -3 9 -2 19 3
23 5 3 15 19 22 34 14 33 16 59 3 38 -6 -9 -8 -4 -6 17 2 27 35 78 35 53 0 -5
-4 -13 -10 -16 -5 -3 -10 -14 -10 -23 1 -12 5 -10 15 8 7 14 11 36 8 49 -4 18
-3 22 7 16 9 -6 10 -1 5 16 -4 13 -10 29 -14 34 -3 6 3 2 13 -10 18 -18 19
-18 12 -1 -3 10 -1 25 5 32 9 11 8 14 -2 14 -11 0 -11 2 1 10 13 8 18 28 20
95 1 10 5 24 9 30 11 14 19 75 10 75 -6 0 -6 33 2 110 1 15 4 7 8 -20 3 -25 6
50 7 165 0 117 -3 199 -8 185 -5 -16 -6 -3 -4 38 4 60 -8 86 -17 40 -4 -17 -5
-15 -5 7 1 17 -2 38 -6 47 -4 9 -3 25 3 37 15 27 15 51 0 31 -9 -12 -10 -12
-5 4 7 22 -13 134 -25 142 -4 2 -5 12 -2 22 6 15 5 15 -8 2 -9 -9 -18 -22 -22
-30 -4 -12 -6 -12 -6 2 -1 9 4 20 9 23 6 4 8 16 5 28 -5 17 -4 19 4 7 12 -17
13 -4 2 24 -7 17 -8 17 -24 2 -22 -22 -22 -9 -1 15 13 14 13 21 4 36 -11 17
-11 17 -6 0 3 -11 2 -15 -4 -12 -6 3 -8 16 -5 28 2 12 -2 36 -10 52 l-14 30 5
-27 c4 -16 2 -28 -4 -28 -5 0 -8 18 -6 40 2 22 -1 40 -6 40 -6 0 -9 3 -8 8 5
15 -33 93 -42 87 -6 -3 -10 -8 -10 -11 0 -3 5 -2 10 1 6 3 10 -3 10 -15 0 -12
4 -29 9 -39 6 -10 6 -23 1 -31 -7 -12 -9 -10 -8 5 0 11 -12 47 -28 80 -15 33
-29 65 -30 70 -1 6 -2 15 -3 20 -1 6 -7 0 -14 -13 -12 -21 -13 -21 -14 15 0
29 1 33 7 18 5 -11 9 -16 9 -11 1 5 8 3 16 -4 8 -7 13 -16 10 -20 -3 -4 4 -19
15 -31 l20 -24 -14 35 c-15 37 -85 129 -100 130 -4 0 -6 -9 -3 -20 3 -11 1
-20 -4 -20 -9 0 -14 28 -10 64 1 16 -1 17 -16 5 -15 -13 -15 -12 -4 10 10 19
15 21 22 10 5 -8 6 -23 3 -34 -4 -14 -3 -16 4 -7 7 11 14 7 31 -15 l22 -28
-15 30 c-9 17 -29 48 -46 70 -16 22 -41 56 -54 77 -34 50 -46 56 -42 19 2 -16
0 -35 -5 -43 -5 -7 -7 9 -5 38 3 41 -1 55 -21 78 -13 16 -26 26 -29 24 -2 -3
2 -11 11 -18 8 -7 15 -17 15 -23 0 -8 -3 -8 -11 0 -6 6 -19 9 -28 6 -9 -3 -12
-1 -6 4 20 17 15 52 -12 72 -14 12 -22 21 -18 21 5 0 0 9 -9 19 -10 11 -26 19
-37 18 -16 -1 -14 -5 12 -26 23 -18 27 -26 17 -32 -19 -12 -29 -11 -26 4 3 13
-41 77 -52 77 -4 0 -5 -12 -2 -27 2 -16 2 -26 -1 -23 -3 3 -7 17 -9 32 -8 56
-23 45 -18 -12 3 -35 -7 -22 -13 18 -4 25 -1 35 15 43 14 7 18 8 14 0 -4 -5 7
-17 23 -26 26 -13 30 -13 25 0 -3 8 -9 14 -12 13 -19 -2 -33 3 -28 11 3 4 -4
17 -16 27 -12 11 -18 14 -15 7 4 -6 3 -15 -3 -18 -6 -4 -9 -3 -8 2 1 4 -1 18
-5 30 -9 25 -45 27 -64 3 -10 -13 -12 -12 -8 8 2 13 0 33 -5 45 -5 12 -9 16
-9 10 -1 -7 -6 -13 -12 -13 -6 0 -9 7 -6 15 4 9 -5 22 -22 35 -25 17 -30 18
-41 5 -14 -17 -7 -31 9 -20 6 3 8 11 5 17 -4 7 -2 8 5 4 16 -10 -5 -36 -29
-36 -13 0 -17 6 -13 20 3 11 0 20 -6 20 -6 0 -11 8 -11 17 0 15 2 14 14 -3 8
-10 18 -16 22 -12 15 16 -18 37 -49 32 -27 -4 -29 -3 -14 6 18 12 15 30 -6 30
-7 0 -6 -4 3 -11 12 -9 12 -10 -3 -5 -10 3 -21 6 -23 6 -3 0 -3 4 1 9 7 12
-32 34 -45 26 -6 -3 -10 0 -10 8 0 17 -77 60 -96 53 -18 -7 -64 10 -64 24 0 6
11 3 25 -6 14 -9 28 -14 32 -10 12 11 -101 54 -119 45 -11 -6 -19 -5 -24 3 -4
7 -3 8 4 4 7 -4 12 -4 12 1 0 16 -60 35 -92 28 -22 -4 -28 -3 -19 3 14 10 9
16 -33 32 -15 5 -25 6 -21 1 3 -5 -9 -2 -27 6 -36 19 -68 24 -153 24 -33 1
-49 3 -35 6 14 3 30 9 35 15 10 11 -26 7 -70 -7 -15 -5 -14 -3 4 8 23 14 22
15 -35 22 -141 18 -390 27 -424 16z m57 -7 c-3 -3 -12 -4 -19 -1 -8 3 -5 6 6
6 11 1 17 -2 13 -5z m71 -1 c-10 -2 -28 -2 -40 0 -13 2 -5 4 17 4 22 1 32 -1
23 -4z m85 0 c-7 -2 -21 -2 -30 0 -10 3 -4 5 12 5 17 0 24 -2 18 -5z m202 -23
c3 -5 1 -10 -4 -10 -6 0 -11 5 -11 10 0 6 2 10 4 10 3 0 8 -4 11 -10z m42 -36
c-3 -3 -12 -4 -19 -1 -8 3 -5 6 6 6 11 1 17 -2 13 -5z m90 -24 c3 -10 2 -11
-4 -4 -4 7 -17 14 -28 17 -16 5 -15 5 4 4 14 -1 26 -9 28 -17z m133 -18 c-1
-15 -2 -15 -11 1 -12 20 -35 23 -42 5 -3 -7 -5 -3 -4 8 1 19 4 20 29 12 16 -6
28 -17 28 -26z m-1214 -17 c-19 -14 -19 -15 -1 -15 10 0 16 -2 13 -5 -3 -4
-19 -3 -34 1 l-29 7 30 13 c39 17 44 17 21 -1z m1350 -12 c-15 -4 -16 -7 -5
-15 11 -8 10 -9 -4 -4 -10 3 -28 7 -40 7 -17 1 -15 3 8 9 17 4 37 8 45 8 8 0
6 -3 -4 -5z m-1396 -23 c-8 -5 -22 -9 -30 -9 -10 0 -8 3 5 9 27 12 43 12 25 0z
m1494 -21 c-6 -11 -24 -2 -24 11 0 5 7 7 15 4 8 -4 12 -10 9 -15z m-1658 -45
c10 -8 14 -13 7 -9 -7 3 -21 0 -31 -6 -13 -8 -24 -9 -36 -2 -17 9 -17 11 -2
16 10 4 15 3 11 -3 -3 -6 1 -10 9 -10 20 0 30 17 14 23 -7 3 -8 6 -2 6 5 1 19
-6 30 -15z m64 1 c-7 -8 -17 -15 -23 -15 -6 0 -2 7 9 15 25 19 30 19 14 0z
m1740 -18 c0 -2 -8 -3 -17 -3 -10 0 -31 -3 -48 -7 -16 -3 -24 -4 -16 0 11 5
11 7 0 15 -10 7 -4 8 19 4 22 -4 31 -2 26 5 -4 8 0 7 15 0 11 -7 21 -13 21
-14z m-1924 -32 c-11 -8 -24 -15 -30 -15 -5 0 -1 7 10 15 10 8 24 14 29 14 6
0 1 -6 -9 -14z m-40 -37 c14 -17 15 -20 2 -9 -9 7 -22 10 -27 6 -7 -3 -8 0 -5
9 8 20 7 20 30 -6z m2040 -23 c-18 -19 -22 -19 -29 -1 -4 11 -1 13 11 9 15 -6
16 -5 2 12 -14 17 -14 18 8 6 20 -10 21 -14 8 -26z m-1966 15 c-8 -5 -22 -9
-30 -9 -10 0 -8 3 5 9 27 12 43 12 25 0z m2125 -97 c-9 -8 -18 -13 -21 -10 -8
8 19 36 29 30 4 -2 0 -11 -8 -20z m-2358 -35 c-3 -8 -6 -5 -6 6 -1 11 2 17 5
13 3 -3 4 -12 1 -19z m-27 -8 c0 -5 -4 -10 -10 -10 -5 0 -10 5 -10 10 0 6 5
10 10 10 6 0 10 -4 10 -10z m-33 -16 c-2 -2 -19 -6 -37 -8 -30 -3 -32 -2 -17
9 15 11 65 10 54 -1z m2533 -20 c0 -8 -5 -12 -10 -9 -6 4 -8 11 -5 16 9 14 15
11 15 -7z m141 -111 c13 -16 12 -17 -3 -4 -17 13 -22 21 -14 21 2 0 10 -8 17
-17z m37 -74 c-3 -20 -5 -19 -9 9 -3 20 -2 29 4 23 5 -5 7 -19 5 -32z m-2977
-36 c11 -15 11 -16 -1 -6 -11 10 -17 10 -29 0 -14 -11 -14 -10 -2 6 7 9 15 17
16 17 1 0 9 -8 16 -17z m-21 -44 c-7 -11 -14 -19 -16 -16 -7 7 7 37 17 37 6 0
5 -9 -1 -21z m1758 -186 c-2 -105 0 -189 5 -186 4 2 7 -1 7 -7 0 -7 107 -10
350 -10 193 1 355 -2 360 -5 6 -3 18 -8 27 -10 10 -2 29 -8 43 -13 14 -5 27
-9 30 -8 3 0 18 -7 32 -16 16 -10 35 -15 45 -11 10 3 15 3 11 -2 -7 -7 93 -65
113 -65 6 0 17 -7 26 -15 8 -8 19 -12 25 -9 6 4 8 2 5 -3 -6 -10 70 -53 93
-53 5 0 10 -4 10 -8 0 -10 72 -43 79 -36 3 3 -1 9 -9 14 -13 8 -12 10 3 10 12
0 17 -8 17 -26 0 -21 4 -24 20 -19 12 4 29 -1 42 -11 22 -16 16 -15 -25 1 -17
7 -63 -76 -72 -132 -5 -34 -2 -54 19 -98 22 -49 28 -55 55 -55 16 0 33 -5 36
-10 4 -6 16 -8 28 -4 15 4 19 3 12 -4 -5 -5 -35 -12 -65 -15 -46 -5 -49 -4
-22 4 36 11 43 22 10 15 -31 -6 -64 -21 -123 -56 -49 -29 -185 -103 -195 -105
-3 -1 -36 -16 -75 -34 -140 -64 -156 -71 -195 -77 -22 -4 -40 -10 -40 -14 0
-5 -435 -7 -967 -6 -533 1 -948 -1 -923 -4 l45 -7 -53 -1 c-36 -2 -51 1 -46 9
4 8 -32 10 -125 7 -73 -3 -134 -1 -137 3 -3 5 -6 201 -7 437 -1 319 1 432 10
440 8 8 13 8 15 0 3 -7 10 -8 18 -3 15 10 70 13 70 4 0 -3 23 -3 50 1 33 4 50
3 50 -4 0 -6 5 -4 11 4 8 11 12 12 15 3 4 -9 13 -9 31 -2 14 5 39 6 57 2 17
-5 85 -6 151 -3 66 3 123 1 126 -3 9 -13 189 -6 189 7 0 6 4 5 9 -3 7 -11 15
-11 41 -2 40 13 50 14 30 1 -13 -8 -12 -10 3 -10 14 0 17 8 16 43 -1 23 -3 34
-6 25 -2 -10 -8 -18 -13 -18 -5 0 -6 30 -3 67 4 39 2 64 -3 61 -5 -4 -7 14 -5
40 5 65 19 28 22 -58 l2 -65 6 77 c4 43 10 80 14 84 4 4 7 2 7 -4 0 -8 27 -12
88 -12 60 0 82 3 72 10 -9 6 -10 10 -3 10 6 0 14 -4 17 -9 3 -5 20 -12 38 -15
18 -4 42 -8 53 -10 11 -3 22 -5 24 -5 2 -1 -4 -10 -13 -20 -14 -16 -17 -35
-14 -105 2 -51 -1 -88 -7 -90 -5 -3 9 -5 33 -5 27 -1 42 3 42 12 0 8 4 7 11
-3 9 -12 12 -13 16 -1 3 8 8 9 12 3 3 -6 5 22 4 61 -2 40 -4 129 -5 199 l-3
127 120 3 c66 2 124 0 128 -3 4 -3 7 -92 5 -196z m-1802 142 c-3 -13 -10 -32
-16 -42 -9 -15 -10 -14 -5 7 6 23 4 22 -24 -10 -17 -19 -31 -31 -31 -27 0 5 6
15 13 23 6 8 23 27 37 43 31 37 31 37 26 6z m3157 10 c4 -8 1 -17 -5 -21 -7
-4 -8 -3 -4 4 4 7 2 12 -3 12 -6 0 -11 5 -11 10 0 15 17 12 23 -5z m32 -55
c26 -28 15 -31 -14 -3 -13 13 -20 23 -14 23 5 0 18 -9 28 -20z m-31 -31 c-31
-12 -39 -10 -19 5 11 8 24 12 29 8 5 -3 1 -9 -10 -13z m-3190 -5 c3 -8 2 -12
-4 -9 -6 3 -10 10 -10 16 0 14 7 11 14 -7z m1153 -41 c-3 -10 -5 -4 -5 12 0
17 2 24 5 18 2 -7 2 -21 0 -30z m-1256 -50 c-12 -20 -14 -14 -5 12 4 9 9 14
11 11 3 -2 0 -13 -6 -23z m-11 -43 c0 -5 -2 -10 -4 -10 -3 0 -8 5 -11 10 -3 6
-1 10 4 10 6 0 11 -4 11 -10z m1230 -65 c0 -9 -9 -15 -22 -15 -21 0 -21 0 -2
15 24 18 24 18 24 0z m2226 -12 c15 -20 18 -33 7 -33 -5 0 -13 11 -20 25 -13
29 -6 33 13 8z m-606 -93 c13 -8 13 -10 -2 -10 -9 0 -20 5 -23 10 -8 13 5 13
25 0z m94 -45 c-4 -11 1 -15 17 -16 19 -1 20 -2 5 -6 -21 -6 -41 11 -32 26 10
16 16 13 10 -4z m571 -37 c-10 -13 -14 -16 -11 -8 3 8 9 24 13 35 4 11 8 14
11 7 2 -6 -4 -22 -13 -34z m-3625 -15 c0 -32 -5 -28 -14 10 -4 19 -3 26 4 22
5 -3 10 -18 10 -32z m3237 -19 c-3 -3 -12 -4 -19 -1 -8 3 -5 6 6 6 11 1 17 -2
13 -5z m-32 -14 c3 -5 18 -11 33 -11 23 -2 24 -2 5 -6 -12 -2 -34 3 -50 11
-19 10 -22 15 -11 16 9 0 20 -4 23 -10z m-3218 -42 c-3 -7 -5 -2 -5 12 0 14 2
19 5 13 2 -7 2 -19 0 -25z m3287 -4 c3 -8 2 -12 -4 -9 -6 3 -10 10 -10 16 0
14 7 11 14 -7z m90 -29 c3 -8 1 -15 -4 -15 -6 0 -10 7 -10 15 0 8 2 15 4 15 2
0 6 -7 10 -15z m161 -91 c-1 -10 4 -23 10 -27 6 -5 4 -7 -5 -4 -8 2 -14 14
-14 25 2 25 0 26 -29 11 -21 -10 -21 -10 -2 6 24 19 40 15 40 -11z m225 -22
c0 -7 -4 -10 -10 -7 -5 3 -10 16 -10 28 0 18 2 19 10 7 5 -8 10 -21 10 -28z
m-170 8 c0 -5 -2 -10 -4 -10 -3 0 -8 5 -11 10 -3 6 -1 10 4 10 6 0 11 -4 11
-10z m30 -10 c0 -5 -5 -10 -11 -10 -5 0 -7 5 -4 10 3 6 8 10 11 10 2 0 4 -4 4
-10z m-4 -69 c1 -6 0 -7 -3 -1 -2 5 -11 10 -18 10 -7 0 -16 7 -19 16 -6 15 -4
15 16 2 12 -8 23 -20 24 -27z m-16 -22 c0 -6 -4 -7 -10 -4 -5 3 -10 11 -10 16
0 6 5 7 10 4 6 -3 10 -11 10 -16z m-40 -51 c-14 -11 -24 -28 -22 -37 2 -13 1
-13 -6 -2 -6 8 -18 11 -33 6 -18 -5 -16 -2 9 14 18 12 37 21 42 21 6 0 10 5
10 10 0 6 6 10 13 10 6 -1 1 -10 -13 -22z m46 -5 c-10 -10 -19 5 -10 18 6 11
8 11 12 0 2 -7 1 -15 -2 -18z m-26 -17 c0 -3 -4 -8 -10 -11 -5 -3 -10 -1 -10
4 0 6 5 11 10 11 6 0 10 -2 10 -4z m-124 -31 c-11 -8 -25 -15 -30 -15 -6 1 0
7 14 15 32 19 40 18 16 0z m-76 -76 c0 -13 -24 -11 -45 4 -16 13 -15 14 13 9
18 -2 32 -8 32 -13z m417 -41 c-3 -8 -6 -5 -6 6 -1 11 2 17 5 13 3 -3 4 -12 1
-19z m-522 -8 c3 -5 -1 -10 -9 -10 -9 0 -16 5 -16 10 0 6 4 10 9 10 6 0 13 -4
16 -10z m-3032 -80 c-3 -11 -12 -20 -19 -20 -18 0 -18 5 2 24 20 21 23 20 17
-4z m2857 0 c0 -5 -4 -10 -10 -10 -5 0 -10 5 -10 10 0 6 5 10 10 10 6 0 10 -4
10 -10z m-3243 -57 c-3 -10 -5 -4 -5 12 0 17 2 24 5 18 2 -7 2 -21 0 -30z
m3950 -90 c-2 -21 -4 -6 -4 32 0 39 2 55 4 38 2 -18 2 -50 0 -70z m-3290 45
c-3 -8 -6 -5 -6 6 -1 11 2 17 5 13 3 -3 4 -12 1 -19z m2373 12 c-8 -5 -22 -9
-30 -9 -10 0 -8 3 5 9 27 12 43 12 25 0z m-55 -20 c-3 -5 -10 -10 -16 -10 -5
0 -9 5 -9 10 0 6 7 10 16 10 8 0 12 -4 9 -10z m-2978 -42 c-3 -7 -5 -2 -5 12
0 14 2 19 5 13 2 -7 2 -19 0 -25z m908 22 c-16 -4 -48 -7 -70 -7 l-40 0 45 7
c25 4 56 7 70 7 22 1 21 0 -5 -7z m278 3 c-13 -2 -33 -2 -45 0 -13 2 -3 4 22
4 25 0 35 -2 23 -4z m144 0 c-20 -2 -52 -2 -70 0 -17 2 0 4 38 4 39 0 53 -2
32 -4z m176 0 c-13 -2 -33 -2 -45 0 -13 2 -3 4 22 4 25 0 35 -2 23 -4z m336
-9 c8 -7 -143 -2 -194 6 -31 5 -5 6 70 2 66 -2 122 -6 124 -8z m-1102 0 c-3
-3 -12 -4 -19 -1 -8 3 -5 6 6 6 11 1 17 -2 13 -5z m50 0 c-3 -3 -12 -4 -19 -1
-8 3 -5 6 6 6 11 1 17 -2 13 -5z m561 -11 c-10 -2 -28 -2 -40 0 -13 2 -5 4 17
4 22 1 32 -1 23 -4z m215 0 c-24 -2 -62 -2 -85 0 -24 2 -5 4 42 4 47 0 66 -2
43 -4z m-336 -19 c-3 -3 -12 -4 -19 -1 -8 3 -5 6 6 6 11 1 17 -2 13 -5z m356
-1 c-13 -2 -33 -2 -45 0 -13 2 -3 4 22 4 25 0 35 -2 23 -4z m-1586 -120 c-3
-10 -5 -2 -5 17 0 19 2 27 5 18 2 -10 2 -26 0 -35z m3934 11 c-5 -16 -10 -21
-10 -12 -1 18 10 51 15 45 2 -1 -1 -16 -5 -33z m9 -101 c0 -25 -15 -12 -17 14
-1 19 1 22 8 12 5 -8 9 -20 9 -26z m-1721 -81 c13 -13 12 -14 -7 -8 -28 9 -28
-1 1 -24 19 -16 20 -21 8 -32 -12 -11 -13 -10 -8 4 5 15 -17 37 -63 61 -9 4
-3 5 13 2 31 -6 35 2 10 22 -16 12 -15 13 7 2 13 -7 31 -19 39 -27z m-664 18
c-27 -12 -43 -12 -25 0 8 5 22 9 30 9 10 0 8 -3 -5 -9z m75 0 c0 -5 -12 -10
-27 -9 -25 0 -26 1 -8 9 27 12 35 12 35 0z m47 -23 c2 -24 0 -25 -18 -14 -16
10 -17 13 -4 15 13 3 14 6 3 19 -11 14 -11 15 2 11 8 -2 16 -16 17 -31z m215
26 c-23 -9 -1 -23 36 -23 29 0 40 -5 47 -22 6 -13 16 -22 21 -21 7 1 11 -31
12 -90 1 -87 -1 -94 -27 -124 -16 -18 -30 -31 -32 -29 -2 2 -17 6 -34 10 -19
4 -25 3 -16 -2 8 -6 9 -12 3 -16 -11 -6 -56 56 -68 94 -4 14 -8 55 -8 92 -1
56 1 65 13 55 12 -10 13 -8 9 10 -4 16 -2 20 10 16 9 -4 13 -2 9 4 -4 6 12 9
46 7 29 -1 41 -1 27 2 -42 7 -100 27 -100 33 0 3 15 6 33 7 17 1 26 -1 19 -3z
m220 -6 c-14 -6 -26 -7 -32 -1 -5 5 4 9 23 10 30 1 30 1 9 -9z m157 -13 c-7
-9 -8 -14 -1 -14 6 0 17 -3 26 -6 11 -4 16 0 16 12 0 12 3 15 8 8 10 -17 112
-23 112 -7 0 7 -7 10 -15 7 -8 -4 -15 -1 -15 5 0 6 10 11 21 11 19 0 21 -4 16
-40 -4 -35 -3 -39 9 -29 8 6 14 23 14 37 0 47 12 14 15 -42 4 -58 -2 -70 -25
-56 -11 7 -10 11 3 25 10 9 17 24 17 33 0 13 -3 11 -16 -6 -8 -12 -19 -20 -24
-17 -4 3 -16 -7 -25 -21 -11 -18 -13 -24 -4 -19 9 5 8 1 -2 -11 -18 -22 -35
-79 -20 -70 10 6 25 -23 16 -32 -3 -3 -5 -1 -5 5 0 6 -9 13 -20 16 -27 7 -25
-1 5 -29 14 -13 25 -26 25 -30 0 -3 -11 1 -25 10 -21 14 -25 14 -25 2 0 -8 8
-17 18 -19 9 -3 -1 -4 -23 -2 -28 2 -43 -2 -51 -14 -7 -9 -16 -12 -20 -8 -5 4
-2 12 6 17 9 6 10 10 3 10 -14 0 -2 42 32 113 13 26 19 50 14 53 -5 3 -6 10
-3 16 4 6 2 8 -4 4 -5 -3 -13 0 -15 6 -4 10 -8 9 -16 -2 -6 -8 -11 -10 -11 -4
0 7 -8 14 -19 17 -15 3 -18 12 -15 38 5 47 12 61 24 54 8 -5 7 -11 -1 -21z
m-2230 -29 c0 -5 -4 -3 -9 5 -5 8 -9 22 -9 30 0 16 17 -16 18 -35z m1898 39
c-3 -3 -12 -4 -19 -1 -8 3 -5 6 6 6 11 1 17 -2 13 -5z m83 -16 c0 -11 -12 -10
-30 2 -12 7 -10 9 8 7 12 0 22 -5 22 -9z m-455 -8 c3 -5 16 -10 28 -9 21 0 21
1 2 9 -18 8 -17 9 8 9 15 1 27 -3 27 -7 0 -5 11 -14 25 -20 14 -6 25 -18 25
-27 0 -8 5 -15 10 -15 17 0 11 -23 -12 -48 -21 -21 -21 -25 -7 -35 9 -7 18
-19 21 -27 4 -10 9 -3 17 20 l11 35 -5 -35 c-3 -19 -10 -36 -15 -38 -5 -2 -7
-18 -4 -35 4 -22 3 -28 -4 -18 -7 10 -11 10 -17 1 -4 -7 -1 -17 6 -22 11 -7 9
-8 -5 -4 -10 4 -25 1 -32 -5 -8 -6 -14 -8 -14 -3 0 5 -24 8 -52 7 -29 0 -48 1
-41 3 7 3 2 14 -14 30 -25 26 -27 48 -2 50 8 1 18 2 23 3 5 0 -2 11 -15 22
-16 15 -20 23 -11 26 18 7 4 23 -21 24 -20 1 -20 2 3 9 17 5 29 3 36 -6 13
-16 28 -19 19 -4 -3 6 1 7 9 4 9 -4 16 -1 16 6 0 8 9 11 24 8 21 -4 23 -3 13
13 -8 13 -13 15 -19 6 -6 -9 -8 -8 -8 2 0 12 -3 11 -12 -2 -14 -18 -69 -18
-75 0 -2 5 8 22 23 38 15 16 19 25 10 22 -9 -4 -16 -3 -16 2 0 21 34 29 45 11z
m554 -2 c-10 -7 -7 -8 12 -4 36 8 68 -22 76 -70 5 -33 7 -35 14 -16 5 12 14
22 21 22 9 0 9 -3 2 -8 -6 -4 -16 -28 -22 -54 -12 -47 -3 -92 21 -109 5 -4 4
-9 -2 -13 -6 -4 -13 4 -17 19 -9 35 -25 31 -17 -5 4 -25 2 -30 -13 -29 -11 0
-14 3 -6 6 6 2 12 9 12 14 0 5 -9 4 -19 -3 -10 -6 -17 -16 -15 -22 3 -7 -11
-10 -41 -8 -25 2 -43 7 -41 11 2 3 -3 13 -12 21 -14 13 -15 13 -10 -1 9 -24
-31 -21 -43 4 -10 21 -10 21 5 3 20 -25 26 -19 19 17 -4 22 -8 26 -15 15 -7
-9 -7 -5 -3 12 14 48 17 120 6 120 -6 0 -11 5 -11 11 0 6 7 9 15 5 18 -7 20 5
3 23 -11 10 -10 11 3 6 16 -6 34 19 25 34 -3 4 11 8 31 8 26 1 32 -2 22 -9z
m-2064 -92 c-13 -24 -15 -26 -9 -6 4 14 7 43 6 65 l0 40 10 -34 c7 -26 6 -41
-7 -65z m1995 84 c0 -5 -5 -10 -11 -10 -5 0 -7 5 -4 10 3 6 8 10 11 10 2 0 4
-4 4 -10z m-242 -106 l-3 -49 -5 57 c-3 31 -1 53 3 49 5 -5 7 -30 5 -57z m-29
7 c-1 -20 -2 -22 -6 -6 -3 11 -9 24 -14 30 -15 15 -10 28 6 15 8 -7 14 -24 14
-39z m648 7 c-3 -8 -6 -5 -6 6 -1 11 2 17 5 13 3 -3 4 -12 1 -19z m-154 5 c-7
-2 -19 -2 -25 0 -7 3 -2 5 12 5 14 0 19 -2 13 -5z m1581 -9 c3 -8 2 -12 -4 -9
-6 3 -10 10 -10 16 0 14 7 11 14 -7z m-1827 -46 c-2 -13 -4 -5 -4 17 -1 22 1
32 4 23 2 -10 2 -28 0 -40z m-557 27 c19 -22 8 -25 -12 -3 -10 10 -14 18 -9
18 5 0 14 -7 21 -15z m224 0 c-4 -8 -11 -15 -16 -15 -6 0 -5 6 2 15 7 8 14 15
16 15 2 0 1 -7 -2 -15z m550 -10 c-4 -8 -8 -15 -10 -15 -2 0 -4 7 -4 15 0 8 4
15 10 15 5 0 7 -7 4 -15z m-507 -27 c-3 -7 -5 -2 -5 12 0 14 2 19 5 13 2 -7 2
-19 0 -25z m529 6 c-4 -9 -9 -15 -11 -12 -3 3 -3 13 1 22 4 9 9 15 11 12 3 -3
3 -13 -1 -22z m29 -4 c-4 -12 -9 -19 -12 -17 -3 3 -2 15 2 27 4 12 9 19 12 17
3 -3 2 -15 -2 -27z m1585 20 c0 -5 -5 -10 -11 -10 -5 0 -7 5 -4 10 3 6 8 10
11 10 2 0 4 -4 4 -10z m-2387 -74 c2 -12 8 -30 12 -41 l8 -20 -16 20 c-9 11
-17 27 -17 36 0 9 -9 28 -20 42 -28 36 -25 46 4 12 13 -15 26 -37 29 -49z
m274 52 c-3 -8 -6 -5 -6 6 -1 11 2 17 5 13 3 -3 4 -12 1 -19z m-257 -8 c0 -5
-4 -10 -10 -10 -5 0 -10 5 -10 10 0 6 5 10 10 10 6 0 10 -4 10 -10z m717 -12
c-3 -8 -6 -5 -6 6 -1 11 2 17 5 13 3 -3 4 -12 1 -19z m-433 -40 c-4 -20 -2
-28 8 -28 10 0 10 -2 1 -8 -17 -11 -84 -2 -77 9 3 5 -1 9 -8 10 -10 0 -11 2 0
6 9 3 10 9 3 17 -6 7 -6 17 -1 26 7 10 10 11 10 3 0 -8 13 -13 33 -12 17 0 26
3 19 6 -6 2 -9 9 -6 15 11 18 24 -15 18 -44z m482 16 c-3 -9 -6 -18 -6 -20 0
-3 -6 1 -14 8 -10 9 -11 15 -2 20 19 13 28 9 22 -8z m-407 -61 c2 -1 -5 -1
-16 0 -11 0 -20 7 -20 14 0 10 4 10 16 1 9 -7 18 -13 20 -15z m-394 7 c3 -5 1
-10 -4 -10 -6 0 -11 5 -11 10 0 6 2 10 4 10 3 0 8 -4 11 -10z m2355 -50 c-24
-15 -37 -11 -16 5 11 8 22 12 25 9 3 -3 -1 -9 -9 -14z m-1290 -74 c0 5 4 3 9
-5 9 -14 7 -73 -4 -91 -3 -5 -14 -10 -23 -10 -15 0 -15 2 -2 10 13 8 12 10 -2
10 -10 0 -18 -4 -18 -10 0 -5 -5 -10 -10 -10 -7 0 -7 7 0 20 6 11 8 26 4 32
-9 14 -15 58 -8 58 2 0 9 -12 14 -26 10 -26 41 -31 46 -6 1 7 0 8 -3 2 -2 -5
-12 -10 -21 -10 -15 0 -15 2 -2 11 11 8 12 12 3 16 -7 2 -13 9 -13 15 0 6 6 6
15 -2 8 -7 15 -9 15 -4z m1243 -67 c-7 -25 -10 -24 -15 5 -3 16 -1 23 7 19 7
-2 11 -13 8 -24z m-3559 -38 c-2 -2 -11 4 -19 15 -8 10 -15 14 -15 7 0 -18 30
-44 43 -36 7 4 6 -1 -2 -10 -18 -23 -24 -21 -39 11 -25 51 -26 56 -12 47 10
-6 12 -4 7 11 -5 12 2 8 18 -11 13 -16 22 -31 19 -34z m4 34 c-3 -3 -9 2 -12
12 -6 14 -5 15 5 6 7 -7 10 -15 7 -18z m852 12 c0 -5 -6 -5 -12 -2 -7 4 2 -6
20 -22 27 -23 31 -31 20 -42 -8 -9 -9 -11 -1 -7 6 3 14 2 18 -4 3 -5 2 -10 -3
-10 -16 0 -23 -31 -11 -46 14 -17 -2 -18 -20 -1 -12 10 -13 9 -7 -7 4 -12 -1
-24 -15 -37 -19 -17 -24 -17 -60 -3 -21 9 -44 14 -51 11 -8 -3 -3 -9 12 -15
24 -10 24 -11 3 -11 -13 -1 -23 -6 -23 -12 0 -5 5 -7 10 -4 15 10 12 -6 -6
-26 -9 -10 -22 -15 -30 -12 -8 3 -20 1 -27 -5 -10 -9 -12 16 -11 121 1 73 2
134 3 137 2 9 191 6 191 -3z m33 -7 c-4 -14 1 -17 27 -14 17 2 28 0 25 -5 -10
-17 -58 -5 -66 16 -5 13 -3 20 6 20 7 0 10 -8 8 -17z m42 2 c-3 -3 -11 0 -18
7 -9 10 -8 11 6 5 10 -3 15 -9 12 -12z m455 8 c0 -5 -4 -10 -10 -10 -5 0 -10
5 -10 10 0 6 5 10 10 10 6 0 10 -4 10 -10z m65 0 c3 -5 1 -10 -4 -10 -6 0 -11
5 -11 10 0 6 2 10 4 10 3 0 8 -4 11 -10z m329 -12 c11 -10 23 -18 27 -18 4 0
6 -17 4 -37 -4 -36 -4 -37 5 -8 l9 30 -3 -35 c-2 -19 1 -44 6 -55 9 -19 8 -19
-9 1 -17 20 -18 21 -35 3 -10 -11 -13 -19 -8 -19 6 0 10 -5 10 -11 0 -5 -5 -7
-12 -3 -6 4 3 -13 20 -38 17 -25 29 -48 25 -51 -3 -4 6 -1 21 6 29 14 33 22
11 31 -8 3 -15 1 -15 -4 0 -6 -4 -10 -10 -10 -11 0 -5 61 8 69 5 3 8 31 6 63
-2 43 1 58 12 62 9 3 12 1 9 -4 -9 -15 8 -12 31 5 18 14 18 14 -6 16 -14 1
-27 1 -30 1 -3 0 -12 7 -20 16 -13 14 -12 15 5 7 11 -4 45 -14 75 -20 49 -11
52 -13 25 -17 l-30 -5 33 -2 c18 0 54 -6 79 -12 32 -9 47 -9 52 -1 11 18 32
-3 42 -39 8 -32 8 -31 6 14 -1 26 1 47 5 47 7 0 10 -14 10 -50 1 -3 -2 -20 -5
-38 -6 -30 -5 -32 13 -22 12 7 22 25 26 49 5 34 9 37 31 33 16 -3 29 2 39 14
10 14 14 15 12 4 -5 -28 54 -24 82 5 24 26 51 36 31 11 -15 -18 5 -34 22 -17
14 14 94 15 102 1 3 -5 1 -10 -6 -10 -7 0 -10 -3 -6 -6 3 -3 10 -3 16 0 14 9
2 36 -18 37 -14 1 -13 2 2 6 10 3 14 10 11 16 -4 7 -3 8 2 4 5 -5 10 -13 10
-18 1 -5 2 -13 3 -19 0 -5 6 -10 11 -10 6 0 10 8 8 17 -2 13 4 18 23 18 18 1
26 -4 25 -15 -2 -25 39 -24 52 2 9 20 11 20 11 4 1 -15 4 -16 15 -7 8 7 27 11
43 8 27 -4 27 -4 -4 -6 -18 0 -33 -5 -33 -11 0 -5 -9 -10 -20 -10 -30 0 -24
-17 10 -29 23 -8 30 -7 30 3 0 9 9 12 25 8 15 -2 25 0 25 7 0 7 5 9 10 6 6 -3
10 -17 10 -30 0 -13 5 -27 10 -30 6 -4 10 5 10 19 0 18 5 26 18 26 10 0 24 6
31 13 11 10 13 10 7 0 -4 -7 -2 -13 3 -13 6 0 11 4 11 9 0 5 10 11 23 14 21 6
21 6 3 -8 -14 -11 -16 -15 -5 -15 10 0 11 -2 2 -8 -7 -5 -10 -17 -6 -32 6 -22
8 -19 24 25 10 28 18 45 18 39 1 -5 -10 -41 -24 -80 -14 -38 -23 -58 -21 -44
3 14 0 32 -5 40 -9 12 -10 12 -5 -3 3 -10 -1 -31 -9 -48 -11 -20 -12 -29 -4
-29 6 0 -5 -20 -24 -44 -24 -29 -33 -47 -27 -55 6 -6 2 -5 -7 3 -14 13 -14 17
-2 33 13 17 13 17 -4 4 -15 -12 -20 -12 -30 -1 -10 10 -9 11 3 5 13 -8 13 -6
2 7 -7 9 -12 20 -10 24 4 16 -13 74 -22 74 -8 0 -21 -47 -21 -75 0 -5 -7 -18
-16 -27 -13 -15 -13 -16 6 -11 12 3 21 13 20 22 -1 9 0 27 1 41 l2 25 7 -25
c15 -51 -27 -102 -54 -66 -8 11 -18 17 -21 13 -4 -4 -1 -14 6 -22 10 -13 11
-18 1 -28 -10 -9 -12 -8 -9 8 2 13 -4 21 -16 23 -11 2 -25 9 -31 16 -17 17
-26 46 -14 46 5 0 14 -11 19 -25 5 -14 15 -25 22 -25 9 0 9 3 0 12 -7 7 -12
25 -12 42 0 16 -7 38 -16 47 -18 20 -27 96 -12 105 5 3 2 15 -8 25 -20 23 -42
26 -24 3 8 -8 13 -36 13 -62 -1 -26 4 -53 9 -59 7 -9 5 -15 -8 -20 -11 -5 -20
-14 -22 -21 -2 -9 5 -9 28 3 26 14 30 14 30 1 0 -9 -6 -13 -14 -10 -15 6 -32
-29 -22 -44 3 -5 -5 -19 -18 -31 -13 -13 -27 -18 -30 -13 -3 5 3 12 14 15 11
3 20 13 20 22 0 15 -2 15 -15 1 -22 -21 -55 -30 -68 -17 -6 6 -19 11 -28 11
-10 0 -24 9 -32 20 -8 11 -17 17 -22 12 -4 -4 -4 8 0 26 4 19 3 32 -4 32 -5 0
-12 -10 -14 -22 -3 -15 -4 -11 -4 9 1 17 5 29 9 27 4 -3 5 3 1 12 -4 12 -3 15
5 10 7 -4 10 -2 7 6 -7 18 34 56 71 68 29 9 29 9 -6 7 -19 0 -48 -9 -64 -19
-16 -9 -33 -15 -37 -13 -3 3 -6 -6 -6 -20 0 -14 3 -22 8 -19 13 8 11 -10 -2
-23 -6 -6 -9 -36 -7 -71 2 -47 0 -58 -9 -50 -7 5 -18 8 -25 5 -8 -4 -7 -6 5
-6 9 -1 17 -5 17 -11 0 -5 7 -10 15 -10 8 0 15 -5 15 -11 0 -7 -10 -5 -25 5
-14 9 -25 13 -25 9 0 -4 -7 2 -14 13 -11 14 -14 40 -10 107 4 72 2 87 -10 87
-16 0 -41 -38 -32 -47 3 -3 8 2 12 11 3 9 11 16 16 16 6 0 5 -6 -2 -15 -6 -8
-8 -20 -4 -26 5 -9 0 -10 -17 -6 l-24 6 25 -19 c14 -10 21 -22 17 -26 -4 -4
-7 -2 -7 4 0 19 -20 14 -21 -5 -1 -13 -4 -10 -10 7 -7 21 -8 19 -5 -12 4 -34
-6 -59 -17 -41 -2 5 -2 2 0 -5 1 -8 -4 -21 -13 -29 -13 -14 -17 -14 -25 -2 -7
11 -12 12 -29 2 -26 -17 -31 -16 -24 2 4 8 2 21 -4 28 -5 6 -13 28 -17 47 -5
19 -10 29 -12 22 -3 -6 -9 -10 -14 -6 -5 3 -5 14 2 26 9 16 8 19 -2 13 -9 -6
-11 -3 -6 9 4 11 3 15 -4 10 -7 -4 -9 3 -7 17 2 17 -2 24 -14 24 -9 0 -20 4
-24 8 -4 4 -17 7 -28 6 -17 0 -16 -2 7 -11 15 -5 27 -15 27 -21 0 -7 4 -6 10
3 7 11 10 5 10 -23 0 -23 4 -36 10 -32 14 8 12 -7 -3 -25 -8 -10 -29 -15 -60
-15 -62 0 -79 -9 -52 -29 18 -13 22 -13 41 5 22 21 39 26 28 7 -4 -7 -3 -8 4
-4 6 3 16 -2 21 -13 8 -14 7 -20 -4 -25 -8 -3 -15 -13 -15 -22 0 -12 -3 -14
-13 -6 -8 7 -18 7 -27 2 -12 -8 -12 -10 4 -10 11 0 17 -3 13 -6 -3 -4 -26 3
-50 15 -45 22 -87 20 -67 -4 13 -15 3 -25 -24 -24 -18 1 -18 2 4 9 l25 8 -27
1 c-14 1 -28 7 -31 14 -2 6 -7 9 -11 5 -4 -3 -2 -16 4 -28 7 -12 8 -20 3 -18
-4 2 -25 12 -45 21 -38 17 -47 30 -28 42 15 9 12 22 -5 22 -8 0 -12 -3 -10 -7
9 -15 -44 -51 -81 -55 -35 -4 -36 -4 -8 4 17 4 36 11 42 15 17 10 15 36 -2 36
-8 0 -13 -8 -12 -17 1 -12 -6 -17 -19 -16 -10 1 -27 -3 -37 -8 -22 -12 -62 6
-52 23 4 7 10 5 16 -6 19 -34 26 -13 27 84 1 64 -2 100 -9 100 -7 0 -7 6 -1
18 5 9 12 24 14 32 7 23 165 21 191 -2z m24 -3 c-3 -3 -9 2 -12 12 -6 14 -5
15 5 6 7 -7 10 -15 7 -18z m933 -2 c-8 -15 -10 -15 -11 -2 0 17 10 32 18 25 2
-3 -1 -13 -7 -23z m89 12 c-10 -12 -9 -15 5 -15 10 0 16 -3 12 -6 -3 -3 -16
-3 -28 1 -22 7 -22 8 -4 21 25 18 31 18 15 -1z m-1840 -5 c-8 -5 -19 -10 -25
-10 -5 0 -3 5 5 10 8 5 20 10 25 10 6 0 3 -5 -5 -10z m40 -5 c-10 -12 -8 -16
11 -24 l24 -10 -25 -1 -25 -1 25 -10 c28 -11 43 -33 46 -67 2 -13 8 -30 15
-38 10 -12 9 -13 -5 -8 -9 3 -16 1 -16 -5 0 -6 -7 -11 -15 -11 -8 0 -15 5 -15
10 0 6 -7 10 -16 10 -8 0 -12 -4 -9 -10 3 -5 2 -10 -4 -10 -5 0 -12 6 -15 13
-5 9 -7 9 -12 -1 -3 -6 -10 -10 -15 -6 -5 3 -9 1 -9 -3 0 -5 24 -9 53 -10 70
-3 90 -7 95 -22 3 -10 0 -10 -16 -2 -17 9 -22 8 -27 -9 -4 -11 -10 -18 -14
-16 -4 3 -22 -4 -39 -15 -18 -10 -40 -19 -50 -18 -15 0 -15 1 1 8 15 6 13 9
-17 24 -20 9 -36 22 -36 29 0 6 -7 20 -16 30 -14 14 -14 20 -4 33 9 11 10 18
1 29 -9 11 -8 15 4 20 11 4 14 13 9 29 -4 20 -1 25 20 29 14 3 30 0 37 -6 9
-8 10 -6 5 8 -5 16 -4 17 8 7 17 -14 40 -5 30 11 -4 6 0 14 7 19 20 13 23 11
9 -6z m150 6 c0 -11 -31 -24 -38 -16 -3 3 1 5 9 5 11 0 11 2 -1 10 -12 8 -11
10 8 10 12 0 22 -4 22 -9z m65 -1 c13 -5 14 -9 5 -9 -8 0 -24 4 -35 9 -13 5
-14 9 -5 9 8 0 24 -4 35 -9z m793 -16 c2 -17 2 -17 -8 -2 -6 10 -19 14 -32 12
-21 -4 -22 -4 -3 5 27 13 39 8 43 -15z m75 19 c-7 -2 -19 -2 -25 0 -7 3 -2 5
12 5 14 0 19 -2 13 -5z m127 -8 c0 -12 -19 -12 -23 0 -4 9 -1 12 9 8 7 -3 14
-7 14 -8z m30 5 c0 -5 -5 -10 -11 -10 -5 0 -7 5 -4 10 3 6 8 10 11 10 2 0 4
-4 4 -10z m327 -12 c-3 -8 -6 -5 -6 6 -1 11 2 17 5 13 3 -3 4 -12 1 -19z m193
12 c0 -5 -4 -10 -10 -10 -5 0 -10 5 -10 10 0 6 5 10 10 10 6 0 10 -4 10 -10z
m80 0 c0 -5 -2 -10 -4 -10 -3 0 -8 5 -11 10 -3 6 -1 10 4 10 6 0 11 -4 11 -10z
m-1540 -10 c8 -5 11 -12 7 -17 -5 -4 -11 -3 -15 3 -4 6 -14 14 -22 17 -13 5
-13 5 0 6 8 0 22 -3 30 -9z m839 -22 c0 -28 -2 -30 -9 -13 -12 28 -12 45 0 45
6 0 10 -15 9 -32z m39 10 c11 -14 10 -16 -7 -11 -12 3 -17 11 -14 19 3 8 6 14
7 12 1 -2 7 -11 14 -20z m-643 2 c-3 -5 -11 -10 -16 -10 -6 0 -7 5 -4 10 3 6
11 10 16 10 6 0 7 -4 4 -10z m539 1 c4 -5 -3 -7 -14 -4 -23 6 -26 13 -6 13 8
0 17 -4 20 -9z m-816 -43 c6 2 12 -2 12 -8 0 -5 -6 -10 -12 -10 -7 0 -5 -5 5
-11 9 -5 17 -18 17 -27 0 -15 -2 -15 -10 -2 -8 11 -9 8 -4 -12 6 -26 4 -28
-27 -28 -37 0 -35 -9 4 -12 14 -1 24 -5 21 -9 -2 -4 0 -10 6 -14 16 -10 5 -50
-16 -52 -14 -2 -15 -1 -4 5 8 4 16 13 18 20 2 9 -5 7 -22 -5 -13 -10 -20 -19
-15 -21 5 -2 9 -8 9 -13 0 -5 -27 -9 -61 -9 -51 0 -60 -3 -55 -16 3 -8 2 -12
-3 -9 -5 3 -8 18 -7 33 2 15 -4 38 -14 52 -11 16 -16 39 -15 67 2 24 -1 45 -6
49 -5 3 -9 10 -9 16 0 7 5 6 14 -1 11 -10 16 -8 21 8 4 14 16 21 33 22 l27 2
-25 5 -25 5 25 6 c16 5 39 0 65 -13 22 -11 46 -19 53 -18z m-27 27 c19 -8 27
-14 19 -14 -14 0 -72 28 -59 29 4 0 22 -7 40 -15z m178 -1 c6 4 11 4 11 -1 1
-4 3 -26 5 -48 4 -30 2 -35 -4 -20 -8 17 -10 18 -10 3 -1 -10 -9 -18 -18 -18
-15 0 -16 2 -3 10 8 5 12 12 8 15 -4 4 -14 -5 -24 -19 -13 -21 -15 -39 -11
-81 5 -54 5 -55 -19 -49 -14 4 -24 2 -24 -5 0 -6 -10 -10 -22 -10 -13 1 -16 3
-8 5 12 4 14 21 10 104 -5 96 -4 100 18 111 17 10 25 10 34 1 13 -13 29 -16
27 -4 -3 19 2 26 10 13 5 -7 14 -10 20 -7z m1281 7 c0 -5 -9 -7 -20 -4 -11 3
-20 7 -20 9 0 2 9 4 20 4 11 0 20 -4 20 -9z m85 -1 c-3 -5 -10 -10 -16 -10 -5
0 -9 5 -9 10 0 6 7 10 16 10 8 0 12 -4 9 -10z m-433 -50 c-10 -12 -18 -16 -21
-9 -2 6 3 15 10 20 24 15 29 10 11 -11z m-2354 -27 c0 -21 -2 -23 -10 -9 -5 9
-6 21 -3 26 10 16 13 12 13 -17z m2139 5 c-3 -8 -6 -5 -6 6 -1 11 2 17 5 13 3
-3 4 -12 1 -19z m740 -10 c-3 -8 -6 -5 -6 6 -1 11 2 17 5 13 3 -3 4 -12 1 -19z
m-1787 2 c0 -5 -4 -10 -10 -10 -5 0 -10 5 -10 10 0 6 5 10 10 10 6 0 10 -4 10
-10z m2365 -32 c0 -13 -3 -28 -7 -34 -9 -14 -48 -25 -48 -14 0 5 10 11 23 13
l22 4 -22 8 c-13 4 -23 12 -23 17 0 5 9 6 20 3 14 -5 20 -2 20 9 0 9 4 16 8
16 4 0 8 -10 7 -22z m-2054 3 c-9 -6 -12 -22 -9 -49 2 -22 0 -38 -4 -36 -5 3
-8 25 -8 50 0 35 3 44 18 44 13 0 14 -2 3 -9z m1468 -45 c-4 -5 -5 -15 -2 -22
3 -8 0 -14 -7 -14 -9 0 -11 10 -6 31 3 17 6 39 7 48 1 9 4 5 8 -9 5 -14 5 -29
0 -34z m-2799 7 c-11 -17 -11 -17 -6 0 3 10 6 24 7 30 0 9 2 9 5 0 3 -7 0 -20
-6 -30z m1728 2 c0 -31 -4 -31 -19 -4 -8 15 -8 19 0 15 6 -4 11 -2 11 3 0 6 2
11 4 11 2 0 4 -11 4 -25z m225 -16 c-6 -6 -15 -4 -23 6 -11 13 -10 14 4 9 11
-4 16 0 17 12 1 19 1 19 6 0 3 -10 1 -22 -4 -27z m-606 -1 c-3 -8 -6 -5 -6 6
-1 11 2 17 5 13 3 -3 4 -12 1 -19z m517 1 c-6 -11 -24 -2 -24 11 0 5 7 7 15 4
8 -4 12 -10 9 -15z m-1104 -19 c-24 -15 -36 -11 -14 4 10 8 21 12 24 10 2 -3
-2 -9 -10 -14z m-63 4 c-3 -3 -12 -4 -19 -1 -8 3 -5 6 6 6 11 1 17 -2 13 -5z
m-657 -24 c-8 -5 -19 -10 -25 -10 -5 0 -3 5 5 10 8 5 20 10 25 10 6 0 3 -5 -5
-10z m1317 -12 c-3 -8 -6 -5 -6 6 -1 11 2 17 5 13 3 -3 4 -12 1 -19z m981 -8
c12 0 22 -4 22 -9 0 -12 -52 0 -67 15 -20 20 -15 29 5 11 10 -10 28 -17 40
-17z m-1503 10 c3 -6 -1 -7 -9 -4 -18 7 -21 14 -7 14 6 0 13 -4 16 -10z m515
-32 c0 -6 -7 -5 -15 2 -9 7 -18 10 -22 6 -4 -3 2 -13 13 -21 10 -8 14 -15 7
-15 -6 0 -15 5 -18 10 -9 15 -27 12 -19 -2 4 -7 3 -10 -1 -5 -16 14 -16 47 -1
41 8 -3 17 0 21 6 8 12 35 -5 35 -22z m-730 12 c0 -5 -6 -10 -12 -11 -10 0
-10 -2 0 -6 16 -6 16 -24 0 -20 -27 5 -36 21 -19 34 20 15 31 16 31 3z m340 0
c-8 -5 -22 -9 -30 -9 -10 0 -8 3 5 9 27 12 43 12 25 0z m660 0 c0 -5 -5 -10
-11 -10 -5 0 -7 5 -4 10 3 6 8 10 11 10 2 0 4 -4 4 -10z m205 0 c13 -6 15 -9
5 -9 -8 0 -22 4 -30 9 -18 12 -2 12 25 0z m465 -5 c7 -8 8 -15 2 -15 -5 0 -15
7 -22 15 -7 8 -8 15 -2 15 5 0 15 -7 22 -15z m-813 -18 c-2 -6 -9 -12 -15 -13
-7 -1 -8 0 -2 3 8 3 7 9 -1 19 -10 12 -9 13 5 8 9 -4 15 -11 13 -17z m448 13
c-3 -5 -12 -10 -18 -10 -7 0 -6 4 3 10 19 12 23 12 15 0z m149 4 c9 -3 16 -10
16 -16 0 -5 -4 -6 -10 -3 -5 3 -10 2 -10 -4 0 -5 5 -12 10 -14 6 -3 5 -4 -2
-3 -7 2 -12 11 -12 20 2 20 -15 21 -22 1 -4 -8 -12 -15 -20 -15 -11 0 -10 5 3
20 19 22 23 23 47 14z m442 -12 c-10 -2 -22 0 -28 6 -6 6 0 7 19 4 21 -5 23
-7 9 -10z m124 9 c0 -5 -7 -12 -16 -15 -24 -9 -28 -7 -14 9 14 17 30 20 30 6z
m-1769 -19 c-7 -2 -18 1 -23 6 -8 8 -4 9 13 5 13 -4 18 -8 10 -11z m99 9 c0
-12 -39 -21 -45 -11 -3 5 5 11 17 13 13 2 24 5 26 6 1 0 2 -3 2 -8z m245 2
c-11 -3 -25 -9 -31 -14 -5 -4 -21 -5 -35 -1 -24 6 -24 6 6 13 36 8 92 10 60 2z
m55 -3 c0 -5 -4 -10 -10 -10 -5 0 -10 5 -10 10 0 6 5 10 10 10 6 0 10 -4 10
-10z m605 -5 c6 -2 -11 -4 -37 -4 -27 -1 -48 3 -48 7 0 7 62 5 85 -3z m329 6
c11 -4 15 -10 10 -13 -5 -4 -18 0 -29 8 -20 15 -12 17 19 5z m184 2 c-10 -2
-18 -9 -18 -14 0 -6 -5 -7 -11 -3 -14 8 8 24 31 23 11 -1 10 -3 -2 -6z m88 -8
c17 -16 14 -18 -10 -9 -9 3 -16 10 -16 15 0 13 9 11 26 -6z m-1369 -1 c-3 -3
-12 -4 -19 -1 -8 3 -5 6 6 6 11 1 17 -2 13 -5z m456 -1 c-13 -2 -35 -2 -50 0
-16 2 -5 4 22 4 28 0 40 -2 28 -4z m114 1 c-3 -3 -12 -4 -19 -1 -8 3 -5 6 6 6
11 1 17 -2 13 -5z m661 -19 c-3 -3 -9 2 -12 12 -6 14 -5 15 5 6 7 -7 10 -15 7
-18z m-688 -5 c0 -4 -8 -10 -19 -13 -14 -3 -17 0 -14 14 5 17 33 16 33 -1z
m123 13 c-7 -2 -19 -2 -25 0 -7 3 -2 5 12 5 14 0 19 -2 13 -5z m404 -15 c-3
-8 -6 -5 -6 6 -1 11 2 17 5 13 3 -3 4 -12 1 -19z m71 -3 c-3 -3 -9 2 -12 12
-6 14 -5 15 5 6 7 -7 10 -15 7 -18z m427 15 c7 -12 -2 -12 -30 0 -19 8 -19 9
2 9 12 1 25 -3 28 -9z m-1808 -6 c-3 -3 -12 -4 -19 -1 -8 3 -5 6 6 6 11 1 17
-2 13 -5z m2363 -1 c0 -5 -5 -15 -10 -23 -7 -12 -9 -10 -7 8 1 19 17 33 17 15z
m-3149 -12 c-12 -8 -13 -12 -1 -26 11 -14 11 -16 -1 -13 -8 2 -17 7 -21 13 -8
11 9 35 26 35 6 0 5 -4 -3 -9z m1649 -78 c0 9 4 17 10 17 6 0 6 -9 0 -26 -12
-32 -12 -34 0 -34 6 0 10 9 10 19 0 11 4 22 9 25 4 3 7 -10 5 -29 -1 -19 2
-35 7 -35 5 0 9 -5 9 -11 0 -6 -7 -9 -15 -5 -8 3 -15 1 -15 -4 0 -14 23 -12
39 3 12 10 13 8 6 -8 -4 -11 -8 -26 -8 -32 0 -7 -8 -13 -18 -13 -15 0 -17 -8
-16 -50 1 -27 5 -50 10 -50 7 0 31 -49 29 -60 0 -3 11 -6 25 -5 15 0 28 -7 30
-15 4 -12 3 -12 -5 -1 -6 8 -18 11 -30 7 -14 -5 -24 -1 -31 11 -6 10 -11 14
-11 8 0 -14 -50 -15 -50 -1 0 6 -5 4 -10 -4 -5 -8 -10 -12 -10 -7 0 17 -2 23
-11 33 -5 6 -7 20 -4 33 2 12 0 19 -6 16 -5 -4 -9 1 -9 9 0 9 5 16 11 16 15 0
7 53 -9 58 -9 3 -12 -4 -11 -19 3 -39 0 -61 -10 -55 -5 4 -8 -4 -6 -16 2 -13
5 -32 7 -42 2 -10 -4 -21 -12 -24 -13 -5 -13 -3 -1 11 17 22 7 22 -25 0 -30
-19 -86 -25 -96 -10 -4 7 -11 7 -20 0 -10 -9 -18 -7 -33 4 -19 15 -19 15 5 8
23 -7 23 -7 7 9 -22 22 -21 32 1 40 9 3 23 9 30 12 7 3 12 -2 13 -13 0 -10 3
-13 5 -6 3 7 11 10 19 7 7 -3 16 0 21 7 5 9 2 10 -9 6 -10 -3 -17 -2 -17 4 0
6 -4 7 -10 4 -5 -3 -21 5 -35 19 -14 14 -25 21 -25 16 0 -9 -26 -8 -36 3 -4 4
0 7 10 7 25 0 36 40 18 67 -8 13 -10 23 -4 23 5 0 13 -8 17 -17 6 -17 7 -17
21 1 8 11 14 15 14 10 0 -6 16 -8 35 -6 19 2 33 7 30 11 -5 9 32 7 41 -2 4 -4
1 -7 -6 -7 -7 0 -11 -2 -8 -5 8 -8 39 6 33 15 -3 4 11 7 31 5 32 -2 35 0 31
24 -2 14 -2 20 0 14 3 -7 9 -13 14 -13 12 0 12 27 -1 35 -5 3 -10 11 -10 18 0
6 7 2 15 -9 13 -17 14 -17 15 -1z m-716 -4 c-3 -6 -1 -15 6 -19 8 -5 3 -10
-14 -14 -27 -7 -34 -20 -16 -31 6 -3 10 -1 10 5 0 7 7 10 15 6 8 -3 15 -2 15
2 0 12 60 32 76 25 8 -3 14 -1 14 5 0 6 -6 12 -12 15 -7 2 -10 8 -6 12 4 4 14
1 22 -8 8 -8 12 -17 9 -21 -4 -3 1 -6 10 -6 9 0 19 5 22 10 10 16 28 11 21 -6
-5 -12 -2 -15 9 -10 9 3 14 2 11 -2 -2 -4 2 -16 10 -26 12 -17 16 -17 31 -5
11 9 14 10 9 2 -7 -12 -3 -14 31 -17 7 -1 20 -10 28 -21 9 -11 14 -14 10 -7
-3 6 -1 12 4 12 6 0 11 -5 11 -12 0 -20 21 7 23 29 0 11 7 20 14 20 8 0 11 -7
8 -16 -4 -11 0 -10 15 4 18 16 20 17 14 2 -3 -9 -1 -17 4 -17 6 0 12 7 14 16
2 10 7 5 15 -15 6 -17 8 -29 3 -26 -10 6 -40 -74 -40 -110 0 -23 3 -27 10 -15
5 8 10 10 10 4 0 -18 -12 -24 -25 -14 -9 8 -15 3 -20 -17 -5 -16 -8 -31 -7
-35 1 -5 -2 -8 -8 -8 -5 0 -10 -5 -10 -11 0 -7 -8 -18 -17 -26 -16 -13 -16
-14 7 -8 22 5 23 4 7 -5 -10 -7 -25 -9 -33 -6 -12 4 -14 1 -9 -14 4 -11 2 -20
-4 -20 -6 0 -11 6 -11 14 0 7 -9 16 -20 19 -11 3 -20 12 -20 21 0 9 -4 16 -10
16 -6 0 -5 -10 2 -25 6 -14 15 -25 20 -25 4 0 8 -5 8 -12 0 -27 -43 32 -46 63
-2 19 -6 39 -8 46 -3 6 2 19 10 30 14 17 15 16 9 -7 -6 -24 -5 -24 9 -6 9 11
16 15 16 9 0 -7 -7 -19 -16 -28 -12 -12 -14 -19 -6 -27 9 -9 16 -2 27 25 18
43 23 46 23 12 0 -13 -4 -22 -9 -19 -5 3 -9 0 -9 -6 0 -7 6 -10 13 -8 21 8 16
49 -19 143 -18 49 -33 84 -33 78 -1 -7 -4 -12 -8 -12 -19 3 -34 -2 -29 -10 3
-4 -15 -7 -40 -5 -47 3 -75 14 -36 14 12 0 22 5 22 10 0 15 -33 26 -38 12 -2
-6 -9 -10 -15 -8 -7 1 -9 1 -5 -1 4 -2 5 -10 2 -17 -3 -9 9 -16 38 -21 24 -4
49 -7 57 -6 8 2 10 -2 5 -10 -4 -8 -3 -10 5 -5 7 5 15 -4 23 -24 8 -23 13 -28
19 -18 6 9 9 7 9 -9 0 -12 6 -24 13 -27 6 -3 2 -3 -9 -1 -17 4 -24 -1 -34 -25
-7 -16 -18 -30 -24 -30 -6 0 -4 -5 4 -10 9 -6 10 -10 3 -10 -6 0 -15 5 -18 10
-11 18 -45 10 -55 -12 -5 -13 -9 -17 -9 -10 -1 9 -8 11 -21 7 -22 -7 -28 10
-7 19 6 3 -1 2 -17 -1 -22 -5 -27 -3 -21 7 5 8 4 11 -3 6 -10 -6 -52 38 -52
54 0 17 64 17 82 0 10 -9 30 -16 44 -14 28 3 46 14 23 14 -11 0 -11 2 -1 9 8
5 -1 8 -25 8 -33 1 -35 0 -13 -8 23 -7 24 -8 2 -6 -33 3 -31 21 4 29 24 6 22
7 -11 4 -22 -2 -51 0 -65 5 -21 7 -20 8 10 5 34 -4 34 -4 8 7 -29 11 -51 57
-42 82 8 20 -6 19 -21 -2 -9 -13 -14 -13 -20 -3 -5 9 -4 11 3 6 15 -9 16 6 2
20 -11 11 17 74 33 74 5 0 5 -5 1 -11z m40 -5 c3 -8 2 -12 -4 -9 -6 3 -10 10
-10 16 0 14 7 11 14 -7z m136 12 c0 -2 -9 -6 -20 -9 -11 -3 -18 -1 -14 4 5 9
34 13 34 5z m1970 -71 c-7 -9 -15 -13 -17 -11 -6 6 20 36 26 30 2 -2 -2 -10
-9 -19z m-2916 -4 c3 -4 -6 -19 -20 -32 -18 -17 -23 -19 -18 -6 6 16 -5 22
-31 17 -5 -1 -4 4 3 11 9 10 15 10 23 2 13 -13 42 -6 33 8 -3 5 -3 9 0 9 3 0
7 -4 10 -9z m1073 -13 c-3 -8 -6 -5 -6 6 -1 11 2 17 5 13 3 -3 4 -12 1 -19z
m524 5 c7 -10 9 -15 5 -11 -5 4 -14 0 -21 -9 -8 -11 -14 -13 -19 -4 -4 6 0 14
8 17 9 3 13 10 10 15 -10 16 3 9 17 -8z m107 -18 c17 -20 32 -43 32 -51 0 -8
4 -13 9 -9 5 3 12 1 16 -5 3 -5 -2 -10 -11 -10 -16 0 -16 -1 2 -15 19 -14 19
-14 -1 -16 -11 -1 -23 -1 -27 0 -5 0 -8 -5 -8 -12 0 -7 10 -14 22 -14 19 -2
20 0 8 8 -12 9 -10 10 7 6 22 -5 23 -3 21 58 -1 35 -5 62 -10 59 -4 -3 -9 -15
-9 -27 -1 -18 -2 -18 -6 -4 -7 27 15 48 46 42 14 -3 20 -2 13 1 -6 3 -9 10 -6
16 3 5 13 0 22 -13 l15 -22 13 24 c7 13 13 18 14 12 0 -7 12 -13 28 -13 15 0
34 -6 40 -12 10 -10 15 -10 21 1 5 7 13 11 19 7 6 -3 13 -2 17 4 4 6 14 4 29
-5 12 -8 26 -12 31 -8 4 5 5 0 2 -10 -6 -15 -4 -16 13 -7 16 9 18 8 14 -5 -4
-8 -10 -15 -15 -15 -5 0 -9 -7 -9 -16 0 -8 5 -12 10 -9 6 3 10 -1 10 -9 0 -9
-4 -16 -10 -16 -15 0 -12 -21 7 -42 9 -10 11 -18 5 -18 -6 0 -13 6 -16 13 -4
6 -4 -2 -2 -20 3 -20 0 -36 -9 -43 -11 -9 -15 -9 -15 -1 0 6 -8 11 -17 11 -15
0 -16 -2 -3 -10 13 -8 12 -10 -2 -10 -14 0 -18 10 -20 48 -1 43 -2 44 -5 10
-3 -31 -8 -38 -26 -39 -21 0 -21 -1 -2 -9 18 -8 17 -9 -7 -9 -16 -1 -28 4 -28
11 0 9 -3 9 -12 0 -15 -15 -31 -16 -22 -1 5 9 -2 10 -22 6 -16 -3 -23 -4 -16
-1 6 3 9 11 5 17 -4 6 0 8 10 4 21 -8 21 2 2 27 -8 11 -15 35 -15 54 0 19 -4
31 -10 27 -11 -7 -9 -75 3 -75 4 0 7 -5 7 -11 0 -5 -5 -7 -11 -4 -6 4 -9 0 -7
-11 2 -15 -4 -20 -36 -22 -35 -3 -38 -1 -33 17 3 12 1 21 -4 21 -5 0 -9 -6 -9
-12 0 -10 -3 -9 -9 1 -7 10 -10 10 -16 1 -4 -7 -3 -15 3 -19 10 -6 6 -51 -5
-51 -2 0 -13 9 -24 19 -17 15 -27 17 -52 10 -40 -11 -46 -11 -27 1 11 7 6 10
-22 10 -31 0 -39 5 -58 37 -14 24 -16 32 -6 24 14 -12 15 -10 10 18 -4 19 -2
37 6 46 7 8 8 15 3 15 -5 0 -10 7 -10 15 0 8 5 14 11 14 6 -1 28 6 50 15 21
10 45 15 52 12 8 -3 14 -1 14 3 0 5 -6 12 -12 14 -7 3 -8 6 -3 6 6 1 25 -15
43 -34z m33 8 c-12 -20 -14 -14 -5 12 4 9 9 14 11 11 3 -2 0 -13 -6 -23z m342
18 c11 -1 -2 -21 -14 -21 -6 0 -7 5 -4 10 3 6 1 10 -4 10 -6 0 -11 -6 -12 -12
0 -10 -2 -10 -6 0 -2 6 -9 10 -14 6 -5 -3 -9 -1 -9 5 0 8 16 9 63 2z m757 -12
c0 -5 -4 -9 -10 -9 -5 0 -10 7 -10 16 0 8 5 12 10 9 6 -3 10 -10 10 -16z m60
-13 c0 -3 -4 -8 -10 -11 -5 -3 -10 -1 -10 4 0 6 5 11 10 11 6 0 10 -2 10 -4z
m-2148 -25 c8 11 9 10 4 -3 -3 -12 0 -18 9 -18 8 0 15 -4 15 -10 0 -11 -32 -1
-42 14 -4 6 -7 16 -7 21 0 6 3 4 6 -4 5 -11 7 -11 15 0z m249 -14 c-10 -9 -11
-8 -5 6 3 10 9 15 12 12 3 -3 0 -11 -7 -18z m1785 -35 c-17 -16 -18 -16 -5 5
7 12 15 20 18 17 3 -2 -3 -12 -13 -22z m-1746 -37 c0 -5 -5 -3 -10 5 -5 8 -10
20 -10 25 0 6 5 3 10 -5 5 -8 10 -19 10 -25z m1720 14 c0 -14 -17 -10 -23 5
-4 10 -1 13 9 9 7 -3 14 -9 14 -14z m-1573 -11 c-3 -8 -6 -5 -6 6 -1 11 2 17
5 13 3 -3 4 -12 1 -19z m-404 5 c-36 -5 -45 -31 -18 -53 8 -7 15 -20 14 -29 0
-13 -1 -14 -6 -1 -3 8 -12 19 -19 23 -14 8 -19 49 -7 60 3 4 20 6 37 5 l31 -1
-32 -4z m454 -19 c-20 -11 -27 -20 -22 -32 5 -14 4 -15 -7 -4 -11 11 -9 17 11
33 13 10 28 19 35 19 6 -1 -2 -8 -17 -16z m193 -14 c0 -5 -4 -10 -10 -10 -5 0
-10 5 -10 10 0 6 5 10 10 10 6 0 10 -4 10 -10z m1236 -7 c-2 -10 4 -21 13 -24
13 -5 13 -7 -4 -16 -18 -10 -20 -8 -21 23 -1 19 2 34 6 34 5 0 7 -8 6 -17z
m59 7 c4 -6 -1 -7 -11 -3 -12 4 -15 3 -10 -5 5 -8 2 -10 -9 -5 -13 5 -14 7 -3
14 17 11 26 11 33 -1z m-1966 -64 c-3 -3 -11 5 -18 17 -13 21 -12 21 5 5 10
-10 16 -20 13 -22z m438 2 c-3 -7 -5 -2 -5 12 0 14 2 19 5 13 2 -7 2 -19 0
-25z m-1032 12 c-10 -16 19 -39 36 -30 11 7 15 3 15 -15 0 -13 -4 -21 -8 -19
-5 3 -5 10 -2 16 5 7 2 9 -8 5 -10 -3 -25 4 -38 18 -16 17 -18 24 -8 28 19 8
20 8 13 -3z m992 -12 c-3 -8 -6 -5 -6 6 -1 11 2 17 5 13 3 -3 4 -12 1 -19z
m283 7 c0 -8 -4 -15 -10 -15 -5 0 -7 7 -4 15 4 8 8 15 10 15 2 0 4 -7 4 -15z
m-646 -20 c-4 -8 -11 -12 -16 -9 -6 4 -5 10 3 15 19 12 19 11 13 -6z m133 9
c-3 -3 -12 -4 -19 -1 -8 3 -5 6 6 6 11 1 17 -2 13 -5z m901 -1 c-10 -2 -26 -2
-35 0 -10 3 -2 5 17 5 19 0 27 -2 18 -5z m782 -13 c8 -5 11 -10 5 -10 -5 0
-17 5 -25 10 -8 5 -10 10 -5 10 6 0 17 -5 25 -10z m-1625 -60 c3 -5 1 -10 -4
-10 -6 0 -11 5 -11 10 0 6 2 10 4 10 3 0 8 -4 11 -10z m139 -15 c-7 -16 -24
-21 -24 -6 0 8 7 13 27 20 1 1 0 -6 -3 -14z m1395 -5 c11 5 23 10 28 10 4 -1
-5 -8 -20 -16 -28 -15 -67 -11 -67 7 0 6 8 6 20 -1 14 -7 26 -8 39 0z m-2204
-20 c3 -6 -1 -7 -9 -4 -18 7 -21 14 -7 14 6 0 13 -4 16 -10z m93 -15 c0 -20
-3 -23 -14 -14 -10 8 -11 14 -1 24 7 8 13 14 13 15 1 0 2 -11 2 -25z m2137 15
c-3 -5 -12 -10 -18 -10 -7 0 -6 4 3 10 19 12 23 12 15 0z m-75 -14 c0 -3 -4
-8 -10 -11 -5 -3 -10 -1 -10 4 0 6 5 11 10 11 6 0 10 -2 10 -4z m35 -14 c-3
-3 -11 0 -18 7 -9 10 -8 11 6 5 10 -3 15 -9 12 -12z m-45 -21 c0 -14 -56 -33
-86 -28 -28 4 -28 4 4 6 18 0 31 5 28 10 -4 5 3 7 14 4 11 -3 20 0 20 6 0 6 5
11 10 11 6 0 10 -4 10 -9z m-1924 -28 c-7 -7 -26 7 -26 19 0 6 6 6 15 -2 9 -7
13 -15 11 -17z m4 -39 c0 -8 -4 -12 -10 -9 -5 3 -10 10 -10 16 0 5 5 9 10 9 6
0 10 -7 10 -16z m77 -40 c-3 -3 -12 -4 -19 -1 -8 3 -5 6 6 6 11 1 17 -2 13 -5z
m53 -4 c0 -5 -7 -10 -16 -10 -8 0 -12 5 -9 10 3 6 10 10 16 10 5 0 9 -4 9 -10z
m1542 -22 c-9 -9 -42 -1 -42 12 0 4 12 5 26 2 15 -3 22 -8 16 -14z m-1497 -18
c7 -12 -2 -12 -30 0 -19 8 -19 9 2 9 12 1 25 -3 28 -9z m142 -26 c-3 -3 -12
-4 -19 -1 -8 3 -5 6 6 6 11 1 17 -2 13 -5z m1109 -12 c-10 -2 -22 0 -28 6 -6
6 0 7 19 4 21 -5 23 -7 9 -10z m57 11 c-7 -2 -19 -2 -25 0 -7 3 -2 5 12 5 14
0 19 -2 13 -5z m-1116 -9 c-3 -3 -12 -4 -19 -1 -8 3 -5 6 6 6 11 1 17 -2 13
-5z m47 -9 c-22 -17 -34 -19 -34 -6 0 5 8 12 18 14 32 9 36 7 16 -8z m-29 -26
c34 -16 36 -18 11 -14 -16 4 -39 13 -50 21 -28 20 -9 16 39 -7z m908 -26 c-7
-2 -19 -2 -25 0 -7 3 -2 5 12 5 14 0 19 -2 13 -5z m-206 -9 c-3 -3 -12 -4 -19
-1 -8 3 -5 6 6 6 11 1 17 -2 13 -5z m70 -2 c8 -5 -2 -8 -25 -9 -28 0 -32 1
-17 7 26 11 28 11 42 2z m-530 -8 c-3 -3 -12 -4 -19 -1 -8 3 -5 6 6 6 11 1 17
-2 13 -5z m376 -1 c-7 -2 -21 -2 -30 0 -10 3 -4 5 12 5 17 0 24 -2 18 -5z
m-185 -10 c-10 -2 -28 -2 -40 0 -13 2 -5 4 17 4 22 1 32 -1 23 -4z m125 -20
c-7 -2 -19 -2 -25 0 -7 3 -2 5 12 5 14 0 19 -2 13 -5z"/>
<path d="M2340 3395 l0 -326 118 3 117 3 3 323 2 322 -120 0 -120 0 0 -325z"/>
<path d="M3426 3534 c-3 -9 -6 -112 -6 -229 0 -117 3 -220 6 -229 5 -13 26
-16 125 -16 l119 0 0 245 0 245 -119 0 c-99 0 -120 -3 -125 -16z"/>
<path d="M3020 2479 c-6 -11 -9 -45 -7 -77 l3 -57 2 58 c2 50 5 57 22 57 11 0
20 -4 20 -10 0 -5 -7 -7 -15 -4 -12 5 -15 -4 -15 -46 0 -38 3 -50 13 -45 6 4
3 -1 -7 -9 -18 -14 -18 -16 -3 -16 18 0 38 38 36 68 -1 11 -4 7 -9 -8 -8 -25
-8 -25 -9 -2 -1 13 4 32 10 43 5 11 7 28 4 38 -9 28 -33 33 -45 10z"/>
<path d="M3465 2479 c-4 -6 -5 -12 -2 -15 2 -3 7 2 10 11 7 17 1 20 -8 4z"/>
<path d="M2650 2411 c0 -13 30 -35 37 -27 4 4 1 11 -6 15 -11 7 -11 10 0 14 8
3 4 6 -8 6 -13 1 -23 -3 -23 -8z"/>
<path d="M2706 2378 c3 -4 -2 -8 -11 -8 -9 0 -14 -4 -10 -10 3 -5 12 -7 20 -3
8 3 15 0 15 -6 0 -6 -5 -11 -12 -11 -6 0 -9 -3 -5 -6 8 -8 47 6 47 17 0 6 -4
8 -9 5 -5 -3 -11 1 -14 9 -4 10 -1 12 10 8 10 -4 14 -2 9 5 -3 6 -15 10 -26 9
-10 -1 -16 -5 -14 -9z"/>
<path d="M3234 2485 c-10 -7 -15 -17 -11 -21 4 -5 11 -4 15 2 4 6 14 13 22 16
9 3 10 7 3 11 -5 3 -19 0 -29 -8z"/>
<path d="M3250 2461 c0 -6 -6 -11 -12 -11 -8 0 -14 -16 -15 -43 -1 -33 0 -38
8 -22 7 16 8 13 5 -12 -3 -18 -2 -34 2 -37 12 -7 35 11 28 22 -3 6 -2 13 4 17
13 8 7 88 -8 93 -7 2 -12 -1 -12 -7z m20 -67 c0 -8 -5 -12 -10 -9 -6 4 -8 11
-5 16 9 14 15 11 15 -7z"/>
<path d="M2075 2050 c-3 -6 1 -13 10 -17 16 -6 16 -7 0 -16 -14 -8 -15 -11 -4
-18 20 -13 29 -11 29 6 0 8 9 19 21 26 17 8 18 13 9 22 -10 9 -14 9 -17 0 -3
-7 -9 -13 -14 -13 -6 0 -7 5 -4 10 3 6 -1 10 -9 10 -8 0 -18 -5 -21 -10z"/>
<path d="M2175 1951 c-3 -6 -10 -9 -15 -6 -5 3 -11 1 -15 -5 -3 -5 3 -10 14
-10 20 0 38 17 28 26 -3 3 -8 0 -12 -5z"/>
<path d="M3675 2060 c-3 -5 1 -10 9 -10 9 0 16 5 16 10 0 6 -4 10 -9 10 -6 0
-13 -4 -16 -10z"/>
<path d="M3864 2059 c-3 -6 -1 -16 6 -22 10 -9 12 -8 7 5 -3 9 -1 19 6 22 9 3
9 5 0 5 -6 1 -15 -4 -19 -10z"/>
<path d="M2998 2048 c-11 -28 2 -48 31 -48 37 0 64 21 55 43 -6 18 -21 21 -48
11 -19 -7 -21 -30 -3 -37 7 -3 6 -6 -5 -6 -11 -1 -18 8 -20 27 -2 21 -4 23
-10 10z m75 -12 c3 -8 0 -16 -6 -19 -7 -3 -13 3 -13 14 0 22 12 25 19 5z"/>
<path d="M3193 2034 c0 -24 1 -26 12 -11 6 9 23 21 36 26 23 9 23 10 2 10 -12
1 -25 -4 -29 -10 -5 -8 -9 -8 -14 1 -4 7 -7 1 -7 -16z"/>
<path d="M3928 2053 c7 -3 16 -2 19 1 4 3 -2 6 -13 5 -11 0 -14 -3 -6 -6z"/>
<path d="M4120 2029 c0 -5 5 -7 10 -4 6 3 10 8 10 11 0 2 -4 4 -10 4 -5 0 -10
-5 -10 -11z"/>
<path d="M3976 2014 c-9 -24 -7 -31 5 -14 8 11 9 7 5 -17 -7 -41 -1 -42 12 -4
8 23 7 32 -3 41 -9 8 -14 6 -19 -6z"/>
<path d="M3260 2000 c-9 -17 -8 -20 10 -20 11 0 20 5 20 11 0 5 5 7 10 4 6 -3
10 -4 10 -1 0 3 -9 10 -20 16 -15 8 -21 6 -30 -10z"/>
<path d="M3806 1995 c-3 -8 -1 -15 4 -15 6 0 10 5 10 11 0 5 5 7 12 3 7 -4 8
-3 4 4 -10 16 -23 15 -30 -3z"/>
<path d="M4122 1990 c0 -14 2 -19 5 -12 2 6 2 18 0 25 -3 6 -5 1 -5 -13z"/>
<path d="M2995 1940 c-3 -5 3 -11 12 -13 17 -4 17 -5 1 -6 -10 0 -18 -4 -18
-9 0 -4 18 -6 40 -4 22 2 37 8 34 13 -3 5 -10 7 -15 4 -5 -3 -6 0 -3 8 4 10
-2 15 -21 15 -14 0 -28 -4 -30 -8z"/>
<path d="M3181 1924 c0 -11 3 -14 6 -6 3 7 2 16 -1 19 -3 4 -6 -2 -5 -13z"/>
<path d="M3793 1933 c-23 -9 -14 -18 20 -20 22 -2 27 0 18 6 -11 7 -9 10 10
14 20 4 19 4 -6 5 -16 0 -36 -2 -42 -5z"/>
<path d="M3026 1885 c4 -8 10 -12 15 -9 11 6 2 24 -11 24 -5 0 -7 -7 -4 -15z"/>
<path d="M3070 1865 c0 -2 13 -11 30 -20 26 -13 29 -13 24 0 -3 8 -10 13 -14
10 -5 -3 -11 -1 -15 5 -6 10 -25 14 -25 5z"/>
<path d="M2265 2040 c-3 -5 -2 -10 4 -10 5 0 13 5 16 10 3 6 2 10 -4 10 -5 0
-13 -4 -16 -10z"/>
<path d="M2321 2006 c-10 -11 -8 -16 9 -21 13 -4 27 -2 34 5 8 10 5 11 -14 6
-14 -3 -19 -3 -12 0 14 6 16 24 3 24 -5 0 -14 -6 -20 -14z"/>
<path d="M2543 1996 c0 -8 8 -11 19 -8 10 2 15 8 12 13 -8 14 -31 11 -31 -5z"/>
<path d="M2525 1929 c-4 -6 -5 -12 -2 -15 2 -3 7 2 10 11 7 17 1 20 -8 4z"/>
<path d="M2546 1924 c-9 -24 -2 -26 12 -4 7 11 8 20 3 20 -5 0 -12 -7 -15 -16z"/>
<path d="M2496 1849 c3 -5 24 -9 46 -9 51 0 47 5 -10 13 -24 3 -40 1 -36 -4z"/>
<path d="M3085 1620 c3 -5 8 -10 11 -10 2 0 4 5 4 10 0 6 -5 10 -11 10 -5 0
-7 -4 -4 -10z"/>
<path d="M3076 1596 c3 -8 -6 -26 -21 -40 -19 -19 -22 -26 -10 -26 8 0 15 -4
15 -10 0 -5 7 -7 15 -4 10 4 13 14 9 30 -4 13 -1 30 5 38 9 10 8 15 -3 19 -10
4 -13 1 -10 -7z"/>
<path d="M2986 1564 c18 -14 18 -15 -6 -9 -19 5 -22 4 -10 -4 8 -6 21 -11 28
-11 18 0 15 27 -4 34 -26 10 -29 7 -8 -10z"/>
<path d="M2985 1460 c-16 -7 -17 -9 -3 -9 9 -1 20 4 23 9 7 11 7 11 -20 0z"/>
<path d="M2788 1581 c-6 -11 -19 -17 -27 -14 -13 4 -13 3 -2 -5 7 -5 10 -15 7
-21 -4 -6 0 -11 9 -11 9 0 13 5 10 10 -3 6 -1 10 5 10 6 0 8 5 5 10 -3 6 -2
10 3 10 5 0 9 7 9 15 0 20 -4 19 -19 -4z"/>
<path d="M3299 1558 l-12 -23 23 20 c20 17 23 18 17 3 -5 -14 -1 -18 16 -18
18 0 19 2 7 10 -8 5 -10 10 -5 10 11 0 -15 20 -27 20 -4 0 -13 -10 -19 -22z"/>
<path d="M3630 1551 c-14 -27 -13 -71 3 -71 9 0 8 -3 -2 -9 -11 -7 -11 -9 0
-14 12 -4 11 -7 -1 -16 -13 -9 -13 -11 3 -11 13 0 17 8 17 34 0 19 5 38 10 41
6 3 10 20 10 37 0 27 -2 29 -17 17 -11 -10 -14 -10 -9 -1 4 6 5 12 2 12 -3 0
-10 -9 -16 -19z m27 -33 c-3 -8 -6 -5 -6 6 -1 11 2 17 5 13 3 -3 4 -12 1 -19z"/>
<path d="M3546 1544 c-9 -22 -7 -64 2 -64 4 0 8 18 8 40 2 43 -1 48 -10 24z"/>
<path d="M3302 1480 c15 -24 31 -25 48 -5 7 8 16 12 21 9 5 -3 9 0 9 5 0 14
-17 14 -25 1 -5 -8 -12 -7 -23 2 -15 12 -16 11 -3 -4 9 -12 10 -18 2 -18 -6 0
-14 7 -17 15 -4 8 -10 15 -15 15 -5 0 -4 -9 3 -20z"/>
<path d="M3240 1445 c0 -8 4 -15 10 -15 5 0 7 7 4 15 -4 8 -8 15 -10 15 -2 0
-4 -7 -4 -15z"/>
<path d="M3376 1421 c-3 -5 1 -11 9 -15 15 -6 29 7 18 18 -9 9 -21 8 -27 -3z"/>
<path d="M1930 4560 c-14 -10 -23 -21 -20 -23 3 -3 19 6 35 19 35 28 22 32
-15 4z"/>
<path d="M4330 4500 c0 -5 10 -15 23 -21 22 -12 22 -12 3 10 -21 23 -26 26
-26 11z"/>
<path d="M1535 4328 c2 -23 19 -35 29 -20 3 5 -3 17 -13 26 -17 15 -18 15 -16
-6z"/>
<path d="M1320 4026 c0 -2 7 -9 15 -16 13 -11 14 -10 9 4 -5 14 -24 23 -24 12z"/>
<path d="M1220 3811 c0 -6 4 -13 10 -16 6 -3 7 1 4 9 -7 18 -14 21 -14 7z"/>
<path d="M1076 3391 c-4 -5 -2 -20 4 -33 8 -19 9 -20 8 -3 -2 11 1 26 5 33 5
6 4 12 -2 12 -5 0 -12 -4 -15 -9z"/>
<path d="M5050 3264 c0 -8 5 -12 10 -9 6 3 10 10 10 16 0 5 -4 9 -10 9 -5 0
-10 -7 -10 -16z"/>
<path d="M5061 2374 c0 -11 3 -14 6 -6 3 7 2 16 -1 19 -3 4 -6 -2 -5 -13z"/>
<path d="M1377 1943 c-4 -3 -7 -11 -7 -17 0 -6 5 -5 12 2 6 6 9 14 7 17 -3 3
-9 2 -12 -2z"/>
<path d="M4745 1860 c-4 -6 -3 -16 3 -22 13 -13 23 4 13 21 -7 10 -10 10 -16
1z"/>
<path d="M1547 1703 c-4 -3 -7 -11 -7 -17 0 -6 5 -5 12 2 6 6 9 14 7 17 -3 3
-9 2 -12 -2z"/>
<path d="M4520 1560 c0 -5 5 -10 10 -10 6 0 10 5 10 10 0 6 -4 10 -10 10 -5 0
-10 -4 -10 -10z"/>
<path d="M1697 1520 c-3 -10 1 -24 7 -30 17 -13 29 0 15 17 -9 10 -8 13 0 13
7 0 9 5 6 10 -10 16 -22 12 -28 -10z"/>
<path d="M3730 1055 c-10 -12 -10 -15 3 -15 8 0 17 7 21 15 3 8 2 15 -3 15 -5
0 -14 -7 -21 -15z"/>
<path d="M3008 933 c7 -3 16 -2 19 1 4 3 -2 6 -13 5 -11 0 -14 -3 -6 -6z"/>
</g>
</svg>
